<mxfile host="app.diagrams.net" agent="Mozilla/5.0 (Windows NT 10.0; Win64; x64) AppleWebKit/537.36 (KHTML, like Gecko) Chrome/137.0.0.0 Safari/537.36" version="27.1.6" pages="3">
  <diagram name="Page-1" id="90a13364-a465-7bf4-72fc-28e22215d7a0">
    <mxGraphModel dx="1464" dy="644" grid="0" gridSize="10" guides="1" tooltips="1" connect="1" arrows="1" fold="1" page="1" pageScale="1.5" pageWidth="1169" pageHeight="826" background="none" math="0" shadow="0">
      <root>
        <mxCell id="0" style=";html=1;" />
        <mxCell id="1" style=";html=1;" parent="0" />
        <mxCell id="3a17f1ce550125da-13" style="edgeStyle=elbowEdgeStyle;rounded=0;html=1;startArrow=none;startFill=0;jettySize=auto;orthogonalLoop=1;fontSize=18;elbow=vertical;" parent="1" source="3a17f1ce550125da-4" target="3a17f1ce550125da-2" edge="1">
          <mxGeometry relative="1" as="geometry" />
        </mxCell>
        <mxCell id="3a17f1ce550125da-1" value="Software Control" style="whiteSpace=wrap;html=1;shadow=1;fontSize=20;fillColor=#f5f5f5;strokeColor=#666666;strokeWidth=2;dashed=1;" parent="1" vertex="1">
          <mxGeometry x="797" y="344" width="150" height="60" as="geometry" />
        </mxCell>
        <mxCell id="3a17f1ce550125da-14" style="edgeStyle=elbowEdgeStyle;rounded=0;html=1;startArrow=none;startFill=0;jettySize=auto;orthogonalLoop=1;fontSize=18;elbow=vertical;" parent="1" source="3a17f1ce550125da-5" target="3a17f1ce550125da-2" edge="1">
          <mxGeometry relative="1" as="geometry" />
        </mxCell>
        <mxCell id="3a17f1ce550125da-15" style="edgeStyle=elbowEdgeStyle;rounded=0;html=1;startArrow=none;startFill=0;jettySize=auto;orthogonalLoop=1;fontSize=18;elbow=vertical;" parent="1" source="3a17f1ce550125da-6" target="3a17f1ce550125da-2" edge="1">
          <mxGeometry relative="1" as="geometry" />
        </mxCell>
        <mxCell id="3a17f1ce550125da-16" style="edgeStyle=elbowEdgeStyle;rounded=0;html=1;startArrow=none;startFill=0;jettySize=auto;orthogonalLoop=1;fontSize=18;elbow=vertical;" parent="1" source="3a17f1ce550125da-7" target="3a17f1ce550125da-2" edge="1">
          <mxGeometry relative="1" as="geometry" />
        </mxCell>
        <mxCell id="3a17f1ce550125da-2" value="SIME&lt;div&gt;&lt;span style=&quot;font-size: 11pt; line-height: 115%; font-family: Calibri, sans-serif;&quot; lang=&quot;ES-MX&quot;&gt;Sistema Integral para&lt;br/&gt;Microempresas&lt;/span&gt;&lt;/div&gt;" style="whiteSpace=wrap;html=1;shadow=1;fontSize=18;fillColor=#f5f5f5;strokeColor=#666666;" parent="1" vertex="1">
          <mxGeometry x="787" y="454" width="170" height="280" as="geometry" />
        </mxCell>
        <mxCell id="3a17f1ce550125da-4" value="Sistema&amp;nbsp;&lt;span style=&quot;background-color: transparent; color: light-dark(rgb(0, 0, 0), rgb(255, 255, 255));&quot;&gt;Punto de Venta (POS)&lt;/span&gt;" style="whiteSpace=wrap;html=1;shadow=1;fontSize=18;fillColor=#f5f5f5;strokeColor=#666666;" parent="1" vertex="1">
          <mxGeometry x="1037" y="454" width="183" height="60" as="geometry" />
        </mxCell>
        <mxCell id="3a17f1ce550125da-5" value="Sistema de&amp;nbsp;&lt;span style=&quot;background-color: transparent; color: light-dark(rgb(0, 0, 0), rgb(255, 255, 255));&quot;&gt;Gestión de Clientes (CRM)&lt;/span&gt;" style="whiteSpace=wrap;html=1;shadow=1;fontSize=18;fillColor=#f5f5f5;strokeColor=#666666;" parent="1" vertex="1">
          <mxGeometry x="1037" y="547" width="203" height="66" as="geometry" />
        </mxCell>
        <mxCell id="3a17f1ce550125da-6" value="Sitema&amp;nbsp;Finanzas y Contabilidad Básica" style="whiteSpace=wrap;html=1;shadow=1;fontSize=18;fillColor=#f5f5f5;strokeColor=#666666;" parent="1" vertex="1">
          <mxGeometry x="1037" y="640" width="203" height="60" as="geometry" />
        </mxCell>
        <mxCell id="3a17f1ce550125da-7" value="Sistema&amp;nbsp;Panel Administrativo y Reportes" style="whiteSpace=wrap;html=1;shadow=1;fontSize=18;fillColor=#f5f5f5;strokeColor=#666666;" parent="1" vertex="1">
          <mxGeometry x="510" y="640" width="213" height="60" as="geometry" />
        </mxCell>
        <mxCell id="3a17f1ce550125da-20" style="edgeStyle=elbowEdgeStyle;rounded=0;html=1;startArrow=none;startFill=0;jettySize=auto;orthogonalLoop=1;fontSize=18;elbow=vertical;" parent="1" source="3a17f1ce550125da-8" target="3a17f1ce550125da-2" edge="1">
          <mxGeometry relative="1" as="geometry">
            <Array as="points">
              <mxPoint x="757" y="490" />
            </Array>
          </mxGeometry>
        </mxCell>
        <mxCell id="3a17f1ce550125da-8" value="Sistema Inventario y stock" style="whiteSpace=wrap;html=1;shadow=1;fontSize=18;fillColor=#f5f5f5;strokeColor=#666666;" parent="1" vertex="1">
          <mxGeometry x="536" y="454" width="187" height="70" as="geometry" />
        </mxCell>
        <mxCell id="3a17f1ce550125da-21" style="edgeStyle=elbowEdgeStyle;rounded=0;html=1;startArrow=none;startFill=0;jettySize=auto;orthogonalLoop=1;fontSize=18;elbow=vertical;" parent="1" source="3a17f1ce550125da-9" target="3a17f1ce550125da-2" edge="1">
          <mxGeometry relative="1" as="geometry" />
        </mxCell>
        <mxCell id="3a17f1ce550125da-9" value="Sistema&amp;nbsp;&lt;span style=&quot;background-color: transparent; color: light-dark(rgb(0, 0, 0), rgb(255, 255, 255));&quot;&gt;Gestión de Usuarios y Roles&lt;/span&gt;" style="whiteSpace=wrap;html=1;shadow=1;fontSize=18;fillColor=#f5f5f5;strokeColor=#666666;" parent="1" vertex="1">
          <mxGeometry x="466" y="550" width="257" height="60" as="geometry" />
        </mxCell>
        <mxCell id="cfBRoqMdeuwh2s0kzKoJ-2" value="" style="edgeStyle=orthogonalEdgeStyle;rounded=0;orthogonalLoop=1;jettySize=auto;html=1;" edge="1" parent="1" source="3a17f1ce550125da-10" target="3a17f1ce550125da-2">
          <mxGeometry relative="1" as="geometry" />
        </mxCell>
        <mxCell id="3a17f1ce550125da-10" value="Configuración y Parametrización del Sistema" style="whiteSpace=wrap;html=1;shadow=1;fontSize=18;fillColor=#f5f5f5;strokeColor=#666666;" parent="1" vertex="1">
          <mxGeometry x="785.5" y="780" width="173" height="120" as="geometry" />
        </mxCell>
      </root>
    </mxGraphModel>
  </diagram>
  <diagram id="w4QZpFrAw_0k903Gcw6k" name="Página-2">
    <mxGraphModel dx="1444" dy="624" grid="0" gridSize="10" guides="1" tooltips="1" connect="1" arrows="1" fold="1" page="1" pageScale="1" pageWidth="827" pageHeight="1169" math="0" shadow="0">
      <root>
        <mxCell id="0" />
        <mxCell id="1" parent="0" />
        <mxCell id="eNaXL-9cgPmAJfwcyRmv-46" value="" style="whiteSpace=wrap;html=1;aspect=fixed;fillColor=#D4E1F5;" vertex="1" parent="1">
          <mxGeometry x="163" y="10" width="522" height="522" as="geometry" />
        </mxCell>
        <mxCell id="eNaXL-9cgPmAJfwcyRmv-24" style="rounded=0;orthogonalLoop=1;jettySize=auto;html=1;entryX=0;entryY=0.5;entryDx=0;entryDy=0;" edge="1" parent="1" source="eNaXL-9cgPmAJfwcyRmv-2" target="eNaXL-9cgPmAJfwcyRmv-6">
          <mxGeometry relative="1" as="geometry" />
        </mxCell>
        <mxCell id="eNaXL-9cgPmAJfwcyRmv-32" style="rounded=0;orthogonalLoop=1;jettySize=auto;html=1;entryX=0;entryY=0.5;entryDx=0;entryDy=0;" edge="1" parent="1" source="eNaXL-9cgPmAJfwcyRmv-2" target="eNaXL-9cgPmAJfwcyRmv-14">
          <mxGeometry relative="1" as="geometry" />
        </mxCell>
        <mxCell id="eNaXL-9cgPmAJfwcyRmv-50" style="rounded=0;orthogonalLoop=1;jettySize=auto;html=1;entryX=0;entryY=0.5;entryDx=0;entryDy=0;" edge="1" parent="1" source="eNaXL-9cgPmAJfwcyRmv-2" target="eNaXL-9cgPmAJfwcyRmv-49">
          <mxGeometry relative="1" as="geometry" />
        </mxCell>
        <mxCell id="_2egeMZEokoIrrMkFvUU-3" style="rounded=0;orthogonalLoop=1;jettySize=auto;html=1;entryX=0;entryY=0.5;entryDx=0;entryDy=0;" edge="1" parent="1" source="eNaXL-9cgPmAJfwcyRmv-2" target="_2egeMZEokoIrrMkFvUU-1">
          <mxGeometry relative="1" as="geometry" />
        </mxCell>
        <mxCell id="eNaXL-9cgPmAJfwcyRmv-2" value="Administrador" style="shape=umlActor;verticalLabelPosition=bottom;verticalAlign=top;html=1;outlineConnect=0;" vertex="1" parent="1">
          <mxGeometry x="58" y="85" width="30" height="60" as="geometry" />
        </mxCell>
        <mxCell id="eNaXL-9cgPmAJfwcyRmv-30" style="rounded=0;orthogonalLoop=1;jettySize=auto;html=1;" edge="1" parent="1" source="eNaXL-9cgPmAJfwcyRmv-3">
          <mxGeometry relative="1" as="geometry">
            <mxPoint x="297.9999999999998" y="65" as="targetPoint" />
          </mxGeometry>
        </mxCell>
        <mxCell id="eNaXL-9cgPmAJfwcyRmv-40" style="rounded=0;orthogonalLoop=1;jettySize=auto;html=1;entryX=0;entryY=0.5;entryDx=0;entryDy=0;" edge="1" parent="1" source="eNaXL-9cgPmAJfwcyRmv-3" target="eNaXL-9cgPmAJfwcyRmv-21">
          <mxGeometry relative="1" as="geometry" />
        </mxCell>
        <mxCell id="eNaXL-9cgPmAJfwcyRmv-42" style="rounded=0;orthogonalLoop=1;jettySize=auto;html=1;entryX=0;entryY=0.5;entryDx=0;entryDy=0;" edge="1" parent="1" source="eNaXL-9cgPmAJfwcyRmv-3" target="eNaXL-9cgPmAJfwcyRmv-20">
          <mxGeometry relative="1" as="geometry" />
        </mxCell>
        <mxCell id="tcPPATNTlsftu_3hCiL_-1" style="rounded=0;orthogonalLoop=1;jettySize=auto;html=1;entryX=0;entryY=0.5;entryDx=0;entryDy=0;" edge="1" parent="1" source="eNaXL-9cgPmAJfwcyRmv-3" target="eNaXL-9cgPmAJfwcyRmv-14">
          <mxGeometry relative="1" as="geometry" />
        </mxCell>
        <mxCell id="eNaXL-9cgPmAJfwcyRmv-3" value="Operador Almacén" style="shape=umlActor;verticalLabelPosition=bottom;verticalAlign=top;html=1;outlineConnect=0;" vertex="1" parent="1">
          <mxGeometry x="58" y="425" width="30" height="60" as="geometry" />
        </mxCell>
        <mxCell id="eNaXL-9cgPmAJfwcyRmv-37" style="rounded=0;orthogonalLoop=1;jettySize=auto;html=1;entryX=1;entryY=0.5;entryDx=0;entryDy=0;" edge="1" parent="1" source="eNaXL-9cgPmAJfwcyRmv-4" target="eNaXL-9cgPmAJfwcyRmv-19">
          <mxGeometry relative="1" as="geometry" />
        </mxCell>
        <mxCell id="eNaXL-9cgPmAJfwcyRmv-38" style="rounded=0;orthogonalLoop=1;jettySize=auto;html=1;entryX=1;entryY=0.5;entryDx=0;entryDy=0;" edge="1" parent="1" source="eNaXL-9cgPmAJfwcyRmv-4" target="eNaXL-9cgPmAJfwcyRmv-18">
          <mxGeometry relative="1" as="geometry" />
        </mxCell>
        <mxCell id="eNaXL-9cgPmAJfwcyRmv-4" value="Cliente" style="shape=umlActor;verticalLabelPosition=bottom;verticalAlign=top;html=1;outlineConnect=0;" vertex="1" parent="1">
          <mxGeometry x="768" y="165" width="30" height="60" as="geometry" />
        </mxCell>
        <mxCell id="eNaXL-9cgPmAJfwcyRmv-31" style="rounded=0;orthogonalLoop=1;jettySize=auto;html=1;" edge="1" parent="1" source="eNaXL-9cgPmAJfwcyRmv-5" target="eNaXL-9cgPmAJfwcyRmv-15">
          <mxGeometry relative="1" as="geometry" />
        </mxCell>
        <mxCell id="eNaXL-9cgPmAJfwcyRmv-34" style="rounded=0;orthogonalLoop=1;jettySize=auto;html=1;entryX=0;entryY=0.5;entryDx=0;entryDy=0;" edge="1" parent="1" source="eNaXL-9cgPmAJfwcyRmv-5" target="eNaXL-9cgPmAJfwcyRmv-16">
          <mxGeometry relative="1" as="geometry" />
        </mxCell>
        <mxCell id="eNaXL-9cgPmAJfwcyRmv-35" style="rounded=0;orthogonalLoop=1;jettySize=auto;html=1;entryX=0;entryY=0.5;entryDx=0;entryDy=0;" edge="1" parent="1" source="eNaXL-9cgPmAJfwcyRmv-5" target="eNaXL-9cgPmAJfwcyRmv-20">
          <mxGeometry relative="1" as="geometry" />
        </mxCell>
        <mxCell id="eNaXL-9cgPmAJfwcyRmv-5" value="Operador POS" style="shape=umlActor;verticalLabelPosition=bottom;verticalAlign=top;html=1;outlineConnect=0;" vertex="1" parent="1">
          <mxGeometry x="58" y="250.5" width="30" height="60" as="geometry" />
        </mxCell>
        <mxCell id="eNaXL-9cgPmAJfwcyRmv-6" value="Login/Logout" style="ellipse;whiteSpace=wrap;html=1;" vertex="1" parent="1">
          <mxGeometry x="298" y="35" width="80" height="50" as="geometry" />
        </mxCell>
        <mxCell id="eNaXL-9cgPmAJfwcyRmv-13" value="CRUD/&lt;div&gt;usuarios&lt;/div&gt;" style="ellipse;whiteSpace=wrap;html=1;" vertex="1" parent="1">
          <mxGeometry x="298" y="115" width="80" height="50" as="geometry" />
        </mxCell>
        <mxCell id="eNaXL-9cgPmAJfwcyRmv-39" style="rounded=0;orthogonalLoop=1;jettySize=auto;html=1;entryX=0;entryY=0.5;entryDx=0;entryDy=0;exitX=0.5;exitY=0.5;exitDx=0;exitDy=0;exitPerimeter=0;" edge="1" parent="1" source="eNaXL-9cgPmAJfwcyRmv-2" target="eNaXL-9cgPmAJfwcyRmv-17">
          <mxGeometry relative="1" as="geometry" />
        </mxCell>
        <mxCell id="eNaXL-9cgPmAJfwcyRmv-14" value="CRUD/&lt;div&gt;Productos&lt;/div&gt;" style="ellipse;whiteSpace=wrap;html=1;" vertex="1" parent="1">
          <mxGeometry x="293" y="183" width="80" height="50" as="geometry" />
        </mxCell>
        <mxCell id="eNaXL-9cgPmAJfwcyRmv-51" style="rounded=0;orthogonalLoop=1;jettySize=auto;html=1;" edge="1" parent="1" source="eNaXL-9cgPmAJfwcyRmv-15" target="eNaXL-9cgPmAJfwcyRmv-49">
          <mxGeometry relative="1" as="geometry" />
        </mxCell>
        <mxCell id="eNaXL-9cgPmAJfwcyRmv-15" value="Read/&lt;div&gt;Productos&lt;/div&gt;" style="ellipse;whiteSpace=wrap;html=1;" vertex="1" parent="1">
          <mxGeometry x="298" y="250.5" width="80" height="50" as="geometry" />
        </mxCell>
        <mxCell id="eNaXL-9cgPmAJfwcyRmv-16" value="Vender/&lt;div&gt;Productos&lt;/div&gt;" style="ellipse;whiteSpace=wrap;html=1;" vertex="1" parent="1">
          <mxGeometry x="298" y="325" width="80" height="50" as="geometry" />
        </mxCell>
        <mxCell id="eNaXL-9cgPmAJfwcyRmv-17" value="Solicitar/&lt;div&gt;Pedidos&lt;/div&gt;" style="ellipse;whiteSpace=wrap;html=1;" vertex="1" parent="1">
          <mxGeometry x="523" y="47" width="80" height="50" as="geometry" />
        </mxCell>
        <mxCell id="eNaXL-9cgPmAJfwcyRmv-43" style="rounded=0;orthogonalLoop=1;jettySize=auto;html=1;entryX=1;entryY=0.5;entryDx=0;entryDy=0;" edge="1" parent="1" source="eNaXL-9cgPmAJfwcyRmv-18" target="eNaXL-9cgPmAJfwcyRmv-16">
          <mxGeometry relative="1" as="geometry" />
        </mxCell>
        <mxCell id="eNaXL-9cgPmAJfwcyRmv-18" value="Realizar pago" style="ellipse;whiteSpace=wrap;html=1;" vertex="1" parent="1">
          <mxGeometry x="523" y="325" width="80" height="50" as="geometry" />
        </mxCell>
        <mxCell id="eNaXL-9cgPmAJfwcyRmv-36" style="rounded=0;orthogonalLoop=1;jettySize=auto;html=1;entryX=1;entryY=0.5;entryDx=0;entryDy=0;" edge="1" parent="1" source="eNaXL-9cgPmAJfwcyRmv-19" target="eNaXL-9cgPmAJfwcyRmv-20">
          <mxGeometry relative="1" as="geometry" />
        </mxCell>
        <mxCell id="eNaXL-9cgPmAJfwcyRmv-19" value="Solicitar compra" style="ellipse;whiteSpace=wrap;html=1;" vertex="1" parent="1">
          <mxGeometry x="523" y="468" width="80" height="50" as="geometry" />
        </mxCell>
        <mxCell id="eNaXL-9cgPmAJfwcyRmv-20" value="&lt;font style=&quot;font-size: 10px;&quot;&gt;Menu(Clientes)&lt;/font&gt;" style="ellipse;whiteSpace=wrap;html=1;" vertex="1" parent="1">
          <mxGeometry x="298" y="476" width="80" height="50" as="geometry" />
        </mxCell>
        <mxCell id="_2egeMZEokoIrrMkFvUU-4" style="rounded=0;orthogonalLoop=1;jettySize=auto;html=1;entryX=0;entryY=0.5;entryDx=0;entryDy=0;" edge="1" parent="1" source="eNaXL-9cgPmAJfwcyRmv-21" target="eNaXL-9cgPmAJfwcyRmv-49">
          <mxGeometry relative="1" as="geometry" />
        </mxCell>
        <mxCell id="eNaXL-9cgPmAJfwcyRmv-21" value="Preparar/ pedidos" style="ellipse;whiteSpace=wrap;html=1;" vertex="1" parent="1">
          <mxGeometry x="298" y="405" width="80" height="50" as="geometry" />
        </mxCell>
        <mxCell id="eNaXL-9cgPmAJfwcyRmv-25" style="rounded=0;orthogonalLoop=1;jettySize=auto;html=1;entryX=0.003;entryY=0.681;entryDx=0;entryDy=0;entryPerimeter=0;" edge="1" parent="1" source="eNaXL-9cgPmAJfwcyRmv-2" target="eNaXL-9cgPmAJfwcyRmv-13">
          <mxGeometry relative="1" as="geometry" />
        </mxCell>
        <mxCell id="eNaXL-9cgPmAJfwcyRmv-33" style="rounded=0;orthogonalLoop=1;jettySize=auto;html=1;entryX=0.052;entryY=0.669;entryDx=0;entryDy=0;entryPerimeter=0;" edge="1" parent="1" source="eNaXL-9cgPmAJfwcyRmv-3" target="eNaXL-9cgPmAJfwcyRmv-15">
          <mxGeometry relative="1" as="geometry" />
        </mxCell>
        <mxCell id="eNaXL-9cgPmAJfwcyRmv-48" value="&lt;b&gt;&lt;font style=&quot;font-size: 14px;&quot;&gt;SIME&lt;/font&gt;&lt;/b&gt;" style="text;html=1;align=center;verticalAlign=middle;whiteSpace=wrap;rounded=0;" vertex="1" parent="1">
          <mxGeometry x="398" y="10" width="60" height="30" as="geometry" />
        </mxCell>
        <mxCell id="eNaXL-9cgPmAJfwcyRmv-49" value="Dashboard" style="ellipse;whiteSpace=wrap;html=1;" vertex="1" parent="1">
          <mxGeometry x="523" y="194" width="80" height="50" as="geometry" />
        </mxCell>
        <mxCell id="_2egeMZEokoIrrMkFvUU-1" value="Finanzas" style="ellipse;whiteSpace=wrap;html=1;" vertex="1" parent="1">
          <mxGeometry x="523" y="118" width="80" height="50" as="geometry" />
        </mxCell>
      </root>
    </mxGraphModel>
  </diagram>
  <diagram id="JLT5EOWbu2_unH0VoCmM" name="Página-3">
    <mxGraphModel dx="1555" dy="672" grid="0" gridSize="10" guides="1" tooltips="1" connect="1" arrows="1" fold="1" page="1" pageScale="1" pageWidth="827" pageHeight="1169" math="0" shadow="0">
      <root>
        <mxCell id="0" />
        <mxCell id="1" parent="0" />
        <mxCell id="mnQk-e2eJ09kS2U4eIUH-1" value="" style="group" vertex="1" connectable="0" parent="1">
          <mxGeometry x="27" y="152" width="790.0015384615385" height="534" as="geometry" />
        </mxCell>
        <mxCell id="mnQk-e2eJ09kS2U4eIUH-2" value="Operador Almacén" style="swimlane;whiteSpace=wrap" vertex="1" parent="mnQk-e2eJ09kS2U4eIUH-1">
          <mxGeometry width="262.3333333333333" height="534" as="geometry" />
        </mxCell>
        <mxCell id="mnQk-e2eJ09kS2U4eIUH-3" value="" style="ellipse;shape=startState;fillColor=#000000;strokeColor=#ff0000;" vertex="1" parent="mnQk-e2eJ09kS2U4eIUH-2">
          <mxGeometry x="93.69047619047618" y="37.473684210526315" width="28.107142857142854" height="28.105263157894736" as="geometry" />
        </mxCell>
        <mxCell id="mnQk-e2eJ09kS2U4eIUH-4" value="" style="edgeStyle=elbowEdgeStyle;elbow=horizontal;verticalAlign=bottom;endArrow=open;endSize=8;strokeColor=#FF0000;endFill=1;rounded=0" edge="1" parent="mnQk-e2eJ09kS2U4eIUH-2" source="mnQk-e2eJ09kS2U4eIUH-3" target="mnQk-e2eJ09kS2U4eIUH-5">
          <mxGeometry x="93.69047619047618" y="37.473684210526315" as="geometry">
            <mxPoint x="107.7440476190476" y="103.05263157894737" as="targetPoint" />
          </mxGeometry>
        </mxCell>
        <mxCell id="mnQk-e2eJ09kS2U4eIUH-5" value="idle- Productos" style="" vertex="1" parent="mnQk-e2eJ09kS2U4eIUH-2">
          <mxGeometry x="56.21428571428571" y="103.05263157894737" width="103.0595238095238" height="46.8421052631579" as="geometry" />
        </mxCell>
        <mxCell id="mnQk-e2eJ09kS2U4eIUH-6" value="Visualiza productos" style="" vertex="1" parent="mnQk-e2eJ09kS2U4eIUH-2">
          <mxGeometry x="56.21428571428571" y="206.10526315789474" width="103.0595238095238" height="46.8421052631579" as="geometry" />
        </mxCell>
        <mxCell id="mnQk-e2eJ09kS2U4eIUH-7" value="" style="endArrow=open;strokeColor=#FF0000;endFill=1;rounded=0" edge="1" parent="mnQk-e2eJ09kS2U4eIUH-2" source="mnQk-e2eJ09kS2U4eIUH-5" target="mnQk-e2eJ09kS2U4eIUH-6">
          <mxGeometry relative="1" as="geometry" />
        </mxCell>
        <mxCell id="mnQk-e2eJ09kS2U4eIUH-8" value="Formularios  CRUD" style="" vertex="1" parent="mnQk-e2eJ09kS2U4eIUH-2">
          <mxGeometry x="56.21428571428571" y="304.4736842105263" width="103.0595238095238" height="46.8421052631579" as="geometry" />
        </mxCell>
        <mxCell id="mnQk-e2eJ09kS2U4eIUH-9" value="" style="endArrow=open;strokeColor=#FF0000;endFill=1;rounded=0" edge="1" parent="mnQk-e2eJ09kS2U4eIUH-2" source="mnQk-e2eJ09kS2U4eIUH-6" target="mnQk-e2eJ09kS2U4eIUH-8">
          <mxGeometry relative="1" as="geometry" />
        </mxCell>
        <mxCell id="mnQk-e2eJ09kS2U4eIUH-10" value="" style="edgeStyle=elbowEdgeStyle;elbow=horizontal;strokeColor=#FF0000;endArrow=open;endFill=1;rounded=0" edge="1" parent="mnQk-e2eJ09kS2U4eIUH-2" source="mnQk-e2eJ09kS2U4eIUH-8" target="mnQk-e2eJ09kS2U4eIUH-5">
          <mxGeometry width="100" height="100" relative="1" as="geometry">
            <mxPoint x="149.9047619047619" y="271.6842105263158" as="sourcePoint" />
            <mxPoint x="243.59523809523807" y="178" as="targetPoint" />
            <Array as="points">
              <mxPoint x="28.107142857142854" y="234.21052631578948" />
            </Array>
          </mxGeometry>
        </mxCell>
        <mxCell id="rLn4Sj_fgA7SqJmoeYEY-1" value="Autenticación&#xa;rol" style="shape=note;whiteSpace=wrap;size=17" vertex="1" parent="mnQk-e2eJ09kS2U4eIUH-2">
          <mxGeometry x="163.95833333333331" y="55.27368421052632" width="94.62738095238095" height="47.77894736842105" as="geometry" />
        </mxCell>
        <mxCell id="rLn4Sj_fgA7SqJmoeYEY-2" value="" style="endArrow=none;strokeColor=#FF0000;endFill=0;rounded=0;dashed=1;exitX=0.5;exitY=1;exitDx=0;exitDy=0;exitPerimeter=0;entryX=1;entryY=0.5;entryDx=0;entryDy=0;" edge="1" parent="mnQk-e2eJ09kS2U4eIUH-2" source="rLn4Sj_fgA7SqJmoeYEY-1" target="mnQk-e2eJ09kS2U4eIUH-5">
          <mxGeometry relative="1" as="geometry">
            <mxPoint x="178.9488095238095" y="116.16842105263159" as="sourcePoint" />
            <mxPoint x="231.41547619047617" y="223.90526315789475" as="targetPoint" />
          </mxGeometry>
        </mxCell>
        <mxCell id="mnQk-e2eJ09kS2U4eIUH-11" value="Inventario" style="swimlane;whiteSpace=wrap" vertex="1" parent="mnQk-e2eJ09kS2U4eIUH-1">
          <mxGeometry x="262.3333333333333" width="262.3333333333333" height="534" as="geometry" />
        </mxCell>
        <mxCell id="mnQk-e2eJ09kS2U4eIUH-12" value="" style="ellipse;shape=startState;fillColor=#000000;strokeColor=#ff0000;" vertex="1" parent="mnQk-e2eJ09kS2U4eIUH-11">
          <mxGeometry x="56.21428571428571" y="37.473684210526315" width="28.107142857142854" height="28.105263157894736" as="geometry" />
        </mxCell>
        <mxCell id="mnQk-e2eJ09kS2U4eIUH-13" value="" style="edgeStyle=elbowEdgeStyle;elbow=horizontal;verticalAlign=bottom;endArrow=open;endSize=8;strokeColor=#FF0000;endFill=1;rounded=0" edge="1" parent="mnQk-e2eJ09kS2U4eIUH-11" source="mnQk-e2eJ09kS2U4eIUH-12" target="mnQk-e2eJ09kS2U4eIUH-14">
          <mxGeometry x="37.476190476190474" y="18.736842105263158" as="geometry">
            <mxPoint x="51.5297619047619" y="84.31578947368422" as="targetPoint" />
          </mxGeometry>
        </mxCell>
        <mxCell id="mnQk-e2eJ09kS2U4eIUH-14" value="idle-actualizado" style="" vertex="1" parent="mnQk-e2eJ09kS2U4eIUH-11">
          <mxGeometry x="18.738095238095237" y="103.05263157894737" width="103.0595238095238" height="46.8421052631579" as="geometry" />
        </mxCell>
        <mxCell id="mnQk-e2eJ09kS2U4eIUH-15" value="Verifica informacion&#xa;Modifica Productos" style="" vertex="1" parent="mnQk-e2eJ09kS2U4eIUH-11">
          <mxGeometry x="13" y="202" width="108.8" height="50.95" as="geometry" />
        </mxCell>
        <mxCell id="mnQk-e2eJ09kS2U4eIUH-16" value="" style="endArrow=open;strokeColor=#FF0000;endFill=1;rounded=0" edge="1" parent="mnQk-e2eJ09kS2U4eIUH-11" source="mnQk-e2eJ09kS2U4eIUH-14" target="mnQk-e2eJ09kS2U4eIUH-15">
          <mxGeometry relative="1" as="geometry" />
        </mxCell>
        <mxCell id="mnQk-e2eJ09kS2U4eIUH-17" value="comandos REST" style="" vertex="1" parent="mnQk-e2eJ09kS2U4eIUH-11">
          <mxGeometry x="18.738095238095237" y="304.4736842105263" width="103.0595238095238" height="46.8421052631579" as="geometry" />
        </mxCell>
        <mxCell id="mnQk-e2eJ09kS2U4eIUH-18" value="" style="endArrow=open;strokeColor=#FF0000;endFill=1;rounded=0" edge="1" parent="mnQk-e2eJ09kS2U4eIUH-11" source="mnQk-e2eJ09kS2U4eIUH-15" target="mnQk-e2eJ09kS2U4eIUH-17">
          <mxGeometry relative="1" as="geometry" />
        </mxCell>
        <mxCell id="mnQk-e2eJ09kS2U4eIUH-19" value="consulta ok" style="rhombus;fillColor=#ffffc0;strokeColor=#ff0000;" vertex="1" parent="mnQk-e2eJ09kS2U4eIUH-11">
          <mxGeometry x="140.53571428571428" y="210.78947368421052" width="74.95238095238095" height="37.473684210526315" as="geometry" />
        </mxCell>
        <mxCell id="mnQk-e2eJ09kS2U4eIUH-20" value="yes" style="edgeStyle=elbowEdgeStyle;elbow=horizontal;align=left;verticalAlign=bottom;endArrow=open;endSize=8;strokeColor=#FF0000;exitX=0.5;exitY=0;endFill=1;rounded=0;entryX=0.75;entryY=0.5;entryPerimeter=0" edge="1" parent="mnQk-e2eJ09kS2U4eIUH-11" source="mnQk-e2eJ09kS2U4eIUH-19" target="mnQk-e2eJ09kS2U4eIUH-23">
          <mxGeometry x="-1" relative="1" as="geometry">
            <mxPoint x="149.9047619047619" y="140.5263157894737" as="targetPoint" />
            <Array as="points">
              <mxPoint x="178.01190476190473" y="168.63157894736844" />
            </Array>
          </mxGeometry>
        </mxCell>
        <mxCell id="mnQk-e2eJ09kS2U4eIUH-21" value="no" style="edgeStyle=elbowEdgeStyle;elbow=horizontal;align=left;verticalAlign=top;endArrow=open;endSize=8;strokeColor=#FF0000;endFill=1;rounded=0" edge="1" parent="mnQk-e2eJ09kS2U4eIUH-11" source="mnQk-e2eJ09kS2U4eIUH-19" target="mnQk-e2eJ09kS2U4eIUH-25">
          <mxGeometry x="-1" relative="1" as="geometry">
            <mxPoint x="178.01190476190473" y="285.7368421052632" as="targetPoint" />
          </mxGeometry>
        </mxCell>
        <mxCell id="mnQk-e2eJ09kS2U4eIUH-22" value="" style="endArrow=open;strokeColor=#FF0000;endFill=1;rounded=0" edge="1" parent="mnQk-e2eJ09kS2U4eIUH-11" source="mnQk-e2eJ09kS2U4eIUH-15" target="mnQk-e2eJ09kS2U4eIUH-19">
          <mxGeometry relative="1" as="geometry" />
        </mxCell>
        <mxCell id="mnQk-e2eJ09kS2U4eIUH-23" value="" style="shape=line;strokeWidth=6;strokeColor=#ff0000;rotation=90" vertex="1" parent="mnQk-e2eJ09kS2U4eIUH-11">
          <mxGeometry x="121.79761904761904" y="119.44736842105263" width="46.84523809523809" height="14.052631578947368" as="geometry" />
        </mxCell>
        <mxCell id="mnQk-e2eJ09kS2U4eIUH-24" value="" style="edgeStyle=elbowEdgeStyle;elbow=horizontal;verticalAlign=bottom;endArrow=open;endSize=8;strokeColor=#FF0000;endFill=1;rounded=0" edge="1" parent="mnQk-e2eJ09kS2U4eIUH-11" source="mnQk-e2eJ09kS2U4eIUH-23" target="mnQk-e2eJ09kS2U4eIUH-14">
          <mxGeometry x="121.79761904761904" y="84.31578947368422" as="geometry">
            <mxPoint x="215.4880952380952" y="131.1578947368421" as="targetPoint" />
          </mxGeometry>
        </mxCell>
        <mxCell id="mnQk-e2eJ09kS2U4eIUH-25" value="dispatch&#xa;command&#xa;worker thread" style="" vertex="1" parent="mnQk-e2eJ09kS2U4eIUH-11">
          <mxGeometry x="131.16666666666666" y="304.4736842105263" width="103.0595238095238" height="46.8421052631579" as="geometry" />
        </mxCell>
        <mxCell id="mnQk-e2eJ09kS2U4eIUH-26" value="MIdleware security" style="shape=note;whiteSpace=wrap;size=17" vertex="1" parent="mnQk-e2eJ09kS2U4eIUH-11">
          <mxGeometry x="98.37499999999999" y="459.0526315789474" width="93.69047619047618" height="46.8421052631579" as="geometry" />
        </mxCell>
        <mxCell id="mnQk-e2eJ09kS2U4eIUH-27" value="" style="endArrow=none;strokeColor=#FF0000;endFill=0;rounded=0;dashed=1" edge="1" parent="mnQk-e2eJ09kS2U4eIUH-11" source="mnQk-e2eJ09kS2U4eIUH-17" target="mnQk-e2eJ09kS2U4eIUH-26">
          <mxGeometry relative="1" as="geometry" />
        </mxCell>
        <mxCell id="mnQk-e2eJ09kS2U4eIUH-28" value="" style="whiteSpace=wrap;strokeColor=#FF0000;fillColor=#FF0000" vertex="1" parent="mnQk-e2eJ09kS2U4eIUH-11">
          <mxGeometry x="229.54166666666663" y="370.0526315789474" width="4.684523809523809" height="42.15789473684211" as="geometry" />
        </mxCell>
        <mxCell id="mnQk-e2eJ09kS2U4eIUH-29" value="" style="edgeStyle=elbowEdgeStyle;elbow=horizontal;entryX=0;entryY=0.5;strokeColor=#FF0000;endArrow=open;endFill=1;rounded=0" edge="1" parent="mnQk-e2eJ09kS2U4eIUH-11" source="mnQk-e2eJ09kS2U4eIUH-25" target="mnQk-e2eJ09kS2U4eIUH-28">
          <mxGeometry width="100" height="100" relative="1" as="geometry">
            <mxPoint x="56.21428571428571" y="449.6842105263158" as="sourcePoint" />
            <mxPoint x="149.9047619047619" y="356" as="targetPoint" />
            <Array as="points">
              <mxPoint x="182.69642857142856" y="374.7368421052632" />
            </Array>
          </mxGeometry>
        </mxCell>
        <mxCell id="mnQk-e2eJ09kS2U4eIUH-30" value="Sistema Automático (SIME)" style="swimlane;whiteSpace=wrap" vertex="1" parent="mnQk-e2eJ09kS2U4eIUH-1">
          <mxGeometry x="524.6666666666666" width="265.3348717948719" height="534" as="geometry" />
        </mxCell>
        <mxCell id="mnQk-e2eJ09kS2U4eIUH-31" value="Mensaje de error&#xa;log/alert" style="" vertex="1" parent="mnQk-e2eJ09kS2U4eIUH-30">
          <mxGeometry x="84.32142857142856" y="379.42105263157896" width="103.0595238095238" height="46.8421052631579" as="geometry" />
        </mxCell>
        <mxCell id="mnQk-e2eJ09kS2U4eIUH-32" value="" style="edgeStyle=elbowEdgeStyle;elbow=horizontal;strokeColor=#FF0000;endArrow=open;endFill=1;rounded=0;entryX=0.25;entryY=0.5;entryPerimeter=0" edge="1" parent="mnQk-e2eJ09kS2U4eIUH-30" target="mnQk-e2eJ09kS2U4eIUH-23">
          <mxGeometry width="100" height="100" relative="1" as="geometry">
            <mxPoint x="-28.107142857142854" y="384.10526315789474" as="sourcePoint" />
            <mxPoint x="-112.42857142857142" y="112.42105263157895" as="targetPoint" />
            <Array as="points">
              <mxPoint x="-9.369047619047619" y="126.47368421052632" />
            </Array>
          </mxGeometry>
        </mxCell>
        <mxCell id="mnQk-e2eJ09kS2U4eIUH-33" value="" style="edgeStyle=none;strokeColor=#FF0000;endArrow=open;endFill=1;rounded=0" edge="1" parent="mnQk-e2eJ09kS2U4eIUH-30" target="mnQk-e2eJ09kS2U4eIUH-31">
          <mxGeometry width="100" height="100" relative="1" as="geometry">
            <mxPoint x="-28.107142857142854" y="402.37368421052633" as="sourcePoint" />
            <mxPoint x="84.32142857142856" y="402.37368421052633" as="targetPoint" />
          </mxGeometry>
        </mxCell>
        <mxCell id="mnQk-e2eJ09kS2U4eIUH-34" value="" style="ellipse;shape=endState;fillColor=#000000;strokeColor=#ff0000" vertex="1" parent="mnQk-e2eJ09kS2U4eIUH-30">
          <mxGeometry x="121.79761904761904" y="468.42105263157896" width="28.107142857142854" height="28.105263157894736" as="geometry" />
        </mxCell>
        <mxCell id="mnQk-e2eJ09kS2U4eIUH-35" value="" style="endArrow=open;strokeColor=#FF0000;endFill=1;rounded=0" edge="1" parent="mnQk-e2eJ09kS2U4eIUH-30" source="mnQk-e2eJ09kS2U4eIUH-31" target="mnQk-e2eJ09kS2U4eIUH-34">
          <mxGeometry relative="1" as="geometry" />
        </mxCell>
        <mxCell id="mnQk-e2eJ09kS2U4eIUH-36" value="" style="endArrow=open;strokeColor=#FF0000;endFill=1;rounded=0" edge="1" parent="mnQk-e2eJ09kS2U4eIUH-1" source="mnQk-e2eJ09kS2U4eIUH-8" target="mnQk-e2eJ09kS2U4eIUH-17">
          <mxGeometry relative="1" as="geometry" />
        </mxCell>
        <mxCell id="rLn4Sj_fgA7SqJmoeYEY-43" value="" style="group" vertex="1" connectable="0" parent="1">
          <mxGeometry x="856" y="152" width="806.000575420673" height="534" as="geometry" />
        </mxCell>
        <mxCell id="rLn4Sj_fgA7SqJmoeYEY-44" value="Operador POS" style="swimlane;whiteSpace=wrap" vertex="1" parent="rLn4Sj_fgA7SqJmoeYEY-43">
          <mxGeometry width="262.3333333333333" height="534" as="geometry" />
        </mxCell>
        <mxCell id="rLn4Sj_fgA7SqJmoeYEY-45" value="" style="ellipse;shape=startState;fillColor=#000000;strokeColor=#ff0000;" vertex="1" parent="rLn4Sj_fgA7SqJmoeYEY-44">
          <mxGeometry x="93.69047619047618" y="37.473684210526315" width="28.107142857142854" height="28.105263157894736" as="geometry" />
        </mxCell>
        <mxCell id="rLn4Sj_fgA7SqJmoeYEY-46" value="" style="edgeStyle=elbowEdgeStyle;elbow=horizontal;verticalAlign=bottom;endArrow=open;endSize=8;strokeColor=#FF0000;endFill=1;rounded=0" edge="1" parent="rLn4Sj_fgA7SqJmoeYEY-44" source="rLn4Sj_fgA7SqJmoeYEY-45" target="rLn4Sj_fgA7SqJmoeYEY-47">
          <mxGeometry x="93.69047619047618" y="37.473684210526315" as="geometry">
            <mxPoint x="107.7440476190476" y="103.05263157894737" as="targetPoint" />
          </mxGeometry>
        </mxCell>
        <mxCell id="rLn4Sj_fgA7SqJmoeYEY-47" value="idle- Productos" style="" vertex="1" parent="rLn4Sj_fgA7SqJmoeYEY-44">
          <mxGeometry x="56.21428571428571" y="103.05263157894737" width="103.0595238095238" height="46.8421052631579" as="geometry" />
        </mxCell>
        <mxCell id="rLn4Sj_fgA7SqJmoeYEY-48" value="Visualiza productos" style="" vertex="1" parent="rLn4Sj_fgA7SqJmoeYEY-44">
          <mxGeometry x="56.21428571428571" y="206.10526315789474" width="103.0595238095238" height="46.8421052631579" as="geometry" />
        </mxCell>
        <mxCell id="rLn4Sj_fgA7SqJmoeYEY-49" value="" style="endArrow=open;strokeColor=#FF0000;endFill=1;rounded=0" edge="1" parent="rLn4Sj_fgA7SqJmoeYEY-44" source="rLn4Sj_fgA7SqJmoeYEY-47" target="rLn4Sj_fgA7SqJmoeYEY-48">
          <mxGeometry relative="1" as="geometry" />
        </mxCell>
        <mxCell id="rLn4Sj_fgA7SqJmoeYEY-50" value="Formularios &#xa;búsqueda" style="" vertex="1" parent="rLn4Sj_fgA7SqJmoeYEY-44">
          <mxGeometry x="56.21428571428571" y="304.4736842105263" width="103.0595238095238" height="46.8421052631579" as="geometry" />
        </mxCell>
        <mxCell id="rLn4Sj_fgA7SqJmoeYEY-51" value="" style="endArrow=open;strokeColor=#FF0000;endFill=1;rounded=0" edge="1" parent="rLn4Sj_fgA7SqJmoeYEY-44" source="rLn4Sj_fgA7SqJmoeYEY-48" target="rLn4Sj_fgA7SqJmoeYEY-50">
          <mxGeometry relative="1" as="geometry" />
        </mxCell>
        <mxCell id="rLn4Sj_fgA7SqJmoeYEY-52" value="" style="edgeStyle=elbowEdgeStyle;elbow=horizontal;strokeColor=#FF0000;endArrow=open;endFill=1;rounded=0" edge="1" parent="rLn4Sj_fgA7SqJmoeYEY-44" source="rLn4Sj_fgA7SqJmoeYEY-50" target="rLn4Sj_fgA7SqJmoeYEY-47">
          <mxGeometry width="100" height="100" relative="1" as="geometry">
            <mxPoint x="149.9047619047619" y="271.6842105263158" as="sourcePoint" />
            <mxPoint x="243.59523809523807" y="178" as="targetPoint" />
            <Array as="points">
              <mxPoint x="28.107142857142854" y="234.21052631578948" />
            </Array>
          </mxGeometry>
        </mxCell>
        <mxCell id="rLn4Sj_fgA7SqJmoeYEY-53" value="Autenticación&#xa;rol" style="shape=note;whiteSpace=wrap;size=17" vertex="1" parent="rLn4Sj_fgA7SqJmoeYEY-44">
          <mxGeometry x="163.95833333333331" y="55.27368421052632" width="94.62738095238095" height="47.77894736842105" as="geometry" />
        </mxCell>
        <mxCell id="rLn4Sj_fgA7SqJmoeYEY-54" value="" style="endArrow=none;strokeColor=#FF0000;endFill=0;rounded=0;dashed=1;exitX=0.5;exitY=1;exitDx=0;exitDy=0;exitPerimeter=0;entryX=1;entryY=0.5;entryDx=0;entryDy=0;" edge="1" parent="rLn4Sj_fgA7SqJmoeYEY-44" source="rLn4Sj_fgA7SqJmoeYEY-53" target="rLn4Sj_fgA7SqJmoeYEY-47">
          <mxGeometry relative="1" as="geometry">
            <mxPoint x="178.9488095238095" y="116.16842105263159" as="sourcePoint" />
            <mxPoint x="231.41547619047617" y="223.90526315789475" as="targetPoint" />
          </mxGeometry>
        </mxCell>
        <mxCell id="rLn4Sj_fgA7SqJmoeYEY-55" value="Ventas" style="swimlane;whiteSpace=wrap" vertex="1" parent="rLn4Sj_fgA7SqJmoeYEY-43">
          <mxGeometry x="262.3333333333333" width="262.3333333333333" height="534" as="geometry" />
        </mxCell>
        <mxCell id="rLn4Sj_fgA7SqJmoeYEY-56" value="" style="ellipse;shape=startState;fillColor=#000000;strokeColor=#ff0000;" vertex="1" parent="rLn4Sj_fgA7SqJmoeYEY-55">
          <mxGeometry x="56.21428571428571" y="37.473684210526315" width="28.107142857142854" height="28.105263157894736" as="geometry" />
        </mxCell>
        <mxCell id="rLn4Sj_fgA7SqJmoeYEY-57" value="" style="edgeStyle=elbowEdgeStyle;elbow=horizontal;verticalAlign=bottom;endArrow=open;endSize=8;strokeColor=#FF0000;endFill=1;rounded=0" edge="1" parent="rLn4Sj_fgA7SqJmoeYEY-55" source="rLn4Sj_fgA7SqJmoeYEY-56" target="rLn4Sj_fgA7SqJmoeYEY-58">
          <mxGeometry x="37.476190476190474" y="18.736842105263158" as="geometry">
            <mxPoint x="51.5297619047619" y="84.31578947368422" as="targetPoint" />
          </mxGeometry>
        </mxCell>
        <mxCell id="rLn4Sj_fgA7SqJmoeYEY-58" value="idle-actualizado" style="" vertex="1" parent="rLn4Sj_fgA7SqJmoeYEY-55">
          <mxGeometry x="18.738095238095237" y="103.05263157894737" width="103.0595238095238" height="46.8421052631579" as="geometry" />
        </mxCell>
        <mxCell id="rLn4Sj_fgA7SqJmoeYEY-59" value="Verifica información&#xa;calcula factura" style="" vertex="1" parent="rLn4Sj_fgA7SqJmoeYEY-55">
          <mxGeometry x="18.738095238095237" y="206.10526315789474" width="103.0595238095238" height="46.8421052631579" as="geometry" />
        </mxCell>
        <mxCell id="rLn4Sj_fgA7SqJmoeYEY-60" value="" style="endArrow=open;strokeColor=#FF0000;endFill=1;rounded=0" edge="1" parent="rLn4Sj_fgA7SqJmoeYEY-55" source="rLn4Sj_fgA7SqJmoeYEY-58" target="rLn4Sj_fgA7SqJmoeYEY-59">
          <mxGeometry relative="1" as="geometry" />
        </mxCell>
        <mxCell id="rLn4Sj_fgA7SqJmoeYEY-61" value="comandos REST" style="" vertex="1" parent="rLn4Sj_fgA7SqJmoeYEY-55">
          <mxGeometry x="18.738095238095237" y="304.4736842105263" width="103.0595238095238" height="46.8421052631579" as="geometry" />
        </mxCell>
        <mxCell id="rLn4Sj_fgA7SqJmoeYEY-62" value="" style="endArrow=open;strokeColor=#FF0000;endFill=1;rounded=0" edge="1" parent="rLn4Sj_fgA7SqJmoeYEY-55" source="rLn4Sj_fgA7SqJmoeYEY-59" target="rLn4Sj_fgA7SqJmoeYEY-61">
          <mxGeometry relative="1" as="geometry" />
        </mxCell>
        <mxCell id="rLn4Sj_fgA7SqJmoeYEY-63" value="consulta ok" style="rhombus;fillColor=#ffffc0;strokeColor=#ff0000;" vertex="1" parent="rLn4Sj_fgA7SqJmoeYEY-55">
          <mxGeometry x="140.53571428571428" y="210.78947368421052" width="74.95238095238095" height="37.473684210526315" as="geometry" />
        </mxCell>
        <mxCell id="rLn4Sj_fgA7SqJmoeYEY-64" value="yes" style="edgeStyle=elbowEdgeStyle;elbow=horizontal;align=left;verticalAlign=bottom;endArrow=open;endSize=8;strokeColor=#FF0000;exitX=0.5;exitY=0;endFill=1;rounded=0;entryX=0.75;entryY=0.5;entryPerimeter=0" edge="1" parent="rLn4Sj_fgA7SqJmoeYEY-55" source="rLn4Sj_fgA7SqJmoeYEY-63" target="rLn4Sj_fgA7SqJmoeYEY-67">
          <mxGeometry x="-1" relative="1" as="geometry">
            <mxPoint x="149.9047619047619" y="140.5263157894737" as="targetPoint" />
            <Array as="points">
              <mxPoint x="178.01190476190473" y="168.63157894736844" />
            </Array>
          </mxGeometry>
        </mxCell>
        <mxCell id="rLn4Sj_fgA7SqJmoeYEY-65" value="no" style="edgeStyle=elbowEdgeStyle;elbow=horizontal;align=left;verticalAlign=top;endArrow=open;endSize=8;strokeColor=#FF0000;endFill=1;rounded=0" edge="1" parent="rLn4Sj_fgA7SqJmoeYEY-55" source="rLn4Sj_fgA7SqJmoeYEY-63" target="rLn4Sj_fgA7SqJmoeYEY-69">
          <mxGeometry x="-1" relative="1" as="geometry">
            <mxPoint x="178.01190476190473" y="285.7368421052632" as="targetPoint" />
          </mxGeometry>
        </mxCell>
        <mxCell id="rLn4Sj_fgA7SqJmoeYEY-66" value="" style="endArrow=open;strokeColor=#FF0000;endFill=1;rounded=0" edge="1" parent="rLn4Sj_fgA7SqJmoeYEY-55" source="rLn4Sj_fgA7SqJmoeYEY-59" target="rLn4Sj_fgA7SqJmoeYEY-63">
          <mxGeometry relative="1" as="geometry" />
        </mxCell>
        <mxCell id="rLn4Sj_fgA7SqJmoeYEY-67" value="" style="shape=line;strokeWidth=6;strokeColor=#ff0000;rotation=90" vertex="1" parent="rLn4Sj_fgA7SqJmoeYEY-55">
          <mxGeometry x="121.79761904761904" y="119.44736842105263" width="46.84523809523809" height="14.052631578947368" as="geometry" />
        </mxCell>
        <mxCell id="rLn4Sj_fgA7SqJmoeYEY-68" value="" style="edgeStyle=elbowEdgeStyle;elbow=horizontal;verticalAlign=bottom;endArrow=open;endSize=8;strokeColor=#FF0000;endFill=1;rounded=0" edge="1" parent="rLn4Sj_fgA7SqJmoeYEY-55" source="rLn4Sj_fgA7SqJmoeYEY-67" target="rLn4Sj_fgA7SqJmoeYEY-58">
          <mxGeometry x="121.79761904761904" y="84.31578947368422" as="geometry">
            <mxPoint x="215.4880952380952" y="131.1578947368421" as="targetPoint" />
          </mxGeometry>
        </mxCell>
        <mxCell id="rLn4Sj_fgA7SqJmoeYEY-69" value="dispatch&#xa;command&#xa;worker thread" style="" vertex="1" parent="rLn4Sj_fgA7SqJmoeYEY-55">
          <mxGeometry x="131.16666666666666" y="304.4736842105263" width="103.0595238095238" height="46.8421052631579" as="geometry" />
        </mxCell>
        <mxCell id="rLn4Sj_fgA7SqJmoeYEY-70" value="MIdleware security" style="shape=note;whiteSpace=wrap;size=17" vertex="1" parent="rLn4Sj_fgA7SqJmoeYEY-55">
          <mxGeometry x="98.37499999999999" y="459.0526315789474" width="93.69047619047618" height="46.8421052631579" as="geometry" />
        </mxCell>
        <mxCell id="rLn4Sj_fgA7SqJmoeYEY-71" value="" style="endArrow=none;strokeColor=#FF0000;endFill=0;rounded=0;dashed=1" edge="1" parent="rLn4Sj_fgA7SqJmoeYEY-55" source="rLn4Sj_fgA7SqJmoeYEY-61" target="rLn4Sj_fgA7SqJmoeYEY-70">
          <mxGeometry relative="1" as="geometry" />
        </mxCell>
        <mxCell id="rLn4Sj_fgA7SqJmoeYEY-72" value="" style="whiteSpace=wrap;strokeColor=#FF0000;fillColor=#FF0000" vertex="1" parent="rLn4Sj_fgA7SqJmoeYEY-55">
          <mxGeometry x="229.54166666666663" y="370.0526315789474" width="4.684523809523809" height="42.15789473684211" as="geometry" />
        </mxCell>
        <mxCell id="rLn4Sj_fgA7SqJmoeYEY-73" value="" style="edgeStyle=elbowEdgeStyle;elbow=horizontal;entryX=0;entryY=0.5;strokeColor=#FF0000;endArrow=open;endFill=1;rounded=0" edge="1" parent="rLn4Sj_fgA7SqJmoeYEY-55" source="rLn4Sj_fgA7SqJmoeYEY-69" target="rLn4Sj_fgA7SqJmoeYEY-72">
          <mxGeometry width="100" height="100" relative="1" as="geometry">
            <mxPoint x="56.21428571428571" y="449.6842105263158" as="sourcePoint" />
            <mxPoint x="149.9047619047619" y="356" as="targetPoint" />
            <Array as="points">
              <mxPoint x="182.69642857142856" y="374.7368421052632" />
            </Array>
          </mxGeometry>
        </mxCell>
        <mxCell id="rLn4Sj_fgA7SqJmoeYEY-74" value="Sistema Automático (SIME)" style="swimlane;whiteSpace=wrap" vertex="1" parent="rLn4Sj_fgA7SqJmoeYEY-43">
          <mxGeometry x="524.6666666666666" width="281.3339087540064" height="534" as="geometry" />
        </mxCell>
        <mxCell id="rLn4Sj_fgA7SqJmoeYEY-75" value="Mensaje de error&#xa;log/alert" style="" vertex="1" parent="rLn4Sj_fgA7SqJmoeYEY-74">
          <mxGeometry x="84.32142857142856" y="379.42105263157896" width="103.0595238095238" height="46.8421052631579" as="geometry" />
        </mxCell>
        <mxCell id="rLn4Sj_fgA7SqJmoeYEY-76" value="" style="edgeStyle=elbowEdgeStyle;elbow=horizontal;strokeColor=#FF0000;endArrow=open;endFill=1;rounded=0;entryX=0.25;entryY=0.5;entryPerimeter=0" edge="1" parent="rLn4Sj_fgA7SqJmoeYEY-74" target="rLn4Sj_fgA7SqJmoeYEY-67">
          <mxGeometry width="100" height="100" relative="1" as="geometry">
            <mxPoint x="-28.107142857142854" y="384.10526315789474" as="sourcePoint" />
            <mxPoint x="-112.42857142857142" y="112.42105263157895" as="targetPoint" />
            <Array as="points">
              <mxPoint x="-9.369047619047619" y="126.47368421052632" />
            </Array>
          </mxGeometry>
        </mxCell>
        <mxCell id="rLn4Sj_fgA7SqJmoeYEY-77" value="" style="edgeStyle=none;strokeColor=#FF0000;endArrow=open;endFill=1;rounded=0" edge="1" parent="rLn4Sj_fgA7SqJmoeYEY-74" target="rLn4Sj_fgA7SqJmoeYEY-75">
          <mxGeometry width="100" height="100" relative="1" as="geometry">
            <mxPoint x="-28.107142857142854" y="402.37368421052633" as="sourcePoint" />
            <mxPoint x="84.32142857142856" y="402.37368421052633" as="targetPoint" />
          </mxGeometry>
        </mxCell>
        <mxCell id="rLn4Sj_fgA7SqJmoeYEY-78" value="" style="ellipse;shape=endState;fillColor=#000000;strokeColor=#ff0000" vertex="1" parent="rLn4Sj_fgA7SqJmoeYEY-74">
          <mxGeometry x="121.79761904761904" y="468.42105263157896" width="28.107142857142854" height="28.105263157894736" as="geometry" />
        </mxCell>
        <mxCell id="rLn4Sj_fgA7SqJmoeYEY-79" value="" style="endArrow=open;strokeColor=#FF0000;endFill=1;rounded=0" edge="1" parent="rLn4Sj_fgA7SqJmoeYEY-74" source="rLn4Sj_fgA7SqJmoeYEY-75" target="rLn4Sj_fgA7SqJmoeYEY-78">
          <mxGeometry relative="1" as="geometry" />
        </mxCell>
        <mxCell id="rLn4Sj_fgA7SqJmoeYEY-80" value="" style="endArrow=open;strokeColor=#FF0000;endFill=1;rounded=0" edge="1" parent="rLn4Sj_fgA7SqJmoeYEY-43" source="rLn4Sj_fgA7SqJmoeYEY-50" target="rLn4Sj_fgA7SqJmoeYEY-61">
          <mxGeometry relative="1" as="geometry" />
        </mxCell>
        <mxCell id="rLn4Sj_fgA7SqJmoeYEY-81" value="" style="group" vertex="1" connectable="0" parent="1">
          <mxGeometry x="1674" y="152" width="829.0046153846152" height="534" as="geometry" />
        </mxCell>
        <mxCell id="rLn4Sj_fgA7SqJmoeYEY-82" value="Venta" style="swimlane;whiteSpace=wrap" vertex="1" parent="rLn4Sj_fgA7SqJmoeYEY-81">
          <mxGeometry width="262.3333333333333" height="534" as="geometry" />
        </mxCell>
        <mxCell id="rLn4Sj_fgA7SqJmoeYEY-83" value="" style="ellipse;shape=startState;fillColor=#000000;strokeColor=#ff0000;" vertex="1" parent="rLn4Sj_fgA7SqJmoeYEY-82">
          <mxGeometry x="93.69047619047618" y="37.473684210526315" width="28.107142857142854" height="28.105263157894736" as="geometry" />
        </mxCell>
        <mxCell id="rLn4Sj_fgA7SqJmoeYEY-84" value="" style="edgeStyle=elbowEdgeStyle;elbow=horizontal;verticalAlign=bottom;endArrow=open;endSize=8;strokeColor=#FF0000;endFill=1;rounded=0" edge="1" parent="rLn4Sj_fgA7SqJmoeYEY-82" source="rLn4Sj_fgA7SqJmoeYEY-83" target="rLn4Sj_fgA7SqJmoeYEY-85">
          <mxGeometry x="93.69047619047618" y="37.473684210526315" as="geometry">
            <mxPoint x="107.7440476190476" y="103.05263157894737" as="targetPoint" />
          </mxGeometry>
        </mxCell>
        <mxCell id="rLn4Sj_fgA7SqJmoeYEY-85" value="id- venta" style="" vertex="1" parent="rLn4Sj_fgA7SqJmoeYEY-82">
          <mxGeometry x="56.21428571428571" y="103.05263157894737" width="103.0595238095238" height="46.8421052631579" as="geometry" />
        </mxCell>
        <mxCell id="rLn4Sj_fgA7SqJmoeYEY-86" value=" productos-factura" style="" vertex="1" parent="rLn4Sj_fgA7SqJmoeYEY-82">
          <mxGeometry x="56.21428571428571" y="206.10526315789474" width="103.0595238095238" height="46.8421052631579" as="geometry" />
        </mxCell>
        <mxCell id="rLn4Sj_fgA7SqJmoeYEY-87" value="" style="endArrow=open;strokeColor=#FF0000;endFill=1;rounded=0" edge="1" parent="rLn4Sj_fgA7SqJmoeYEY-82" source="rLn4Sj_fgA7SqJmoeYEY-85" target="rLn4Sj_fgA7SqJmoeYEY-86">
          <mxGeometry relative="1" as="geometry" />
        </mxCell>
        <mxCell id="rLn4Sj_fgA7SqJmoeYEY-88" value="consulta " style="" vertex="1" parent="rLn4Sj_fgA7SqJmoeYEY-82">
          <mxGeometry x="56.21428571428571" y="304.4736842105263" width="103.0595238095238" height="46.8421052631579" as="geometry" />
        </mxCell>
        <mxCell id="rLn4Sj_fgA7SqJmoeYEY-89" value="" style="endArrow=open;strokeColor=#FF0000;endFill=1;rounded=0" edge="1" parent="rLn4Sj_fgA7SqJmoeYEY-82" source="rLn4Sj_fgA7SqJmoeYEY-86" target="rLn4Sj_fgA7SqJmoeYEY-88">
          <mxGeometry relative="1" as="geometry" />
        </mxCell>
        <mxCell id="rLn4Sj_fgA7SqJmoeYEY-90" value="" style="edgeStyle=elbowEdgeStyle;elbow=horizontal;strokeColor=#FF0000;endArrow=open;endFill=1;rounded=0" edge="1" parent="rLn4Sj_fgA7SqJmoeYEY-82" source="rLn4Sj_fgA7SqJmoeYEY-88" target="rLn4Sj_fgA7SqJmoeYEY-85">
          <mxGeometry width="100" height="100" relative="1" as="geometry">
            <mxPoint x="149.9047619047619" y="271.6842105263158" as="sourcePoint" />
            <mxPoint x="243.59523809523807" y="178" as="targetPoint" />
            <Array as="points">
              <mxPoint x="28.107142857142854" y="234.21052631578948" />
            </Array>
          </mxGeometry>
        </mxCell>
        <mxCell id="rLn4Sj_fgA7SqJmoeYEY-91" value="Autenticación&#xa;rol" style="shape=note;whiteSpace=wrap;size=17" vertex="1" parent="rLn4Sj_fgA7SqJmoeYEY-82">
          <mxGeometry x="163.95833333333331" y="55.27368421052632" width="94.62738095238095" height="47.77894736842105" as="geometry" />
        </mxCell>
        <mxCell id="rLn4Sj_fgA7SqJmoeYEY-92" value="" style="endArrow=none;strokeColor=#FF0000;endFill=0;rounded=0;dashed=1;exitX=0.5;exitY=1;exitDx=0;exitDy=0;exitPerimeter=0;entryX=1;entryY=0.5;entryDx=0;entryDy=0;" edge="1" parent="rLn4Sj_fgA7SqJmoeYEY-82" source="rLn4Sj_fgA7SqJmoeYEY-91" target="rLn4Sj_fgA7SqJmoeYEY-85">
          <mxGeometry relative="1" as="geometry">
            <mxPoint x="178.9488095238095" y="116.16842105263159" as="sourcePoint" />
            <mxPoint x="231.41547619047617" y="223.90526315789475" as="targetPoint" />
          </mxGeometry>
        </mxCell>
        <mxCell id="rLn4Sj_fgA7SqJmoeYEY-93" value="Inventario" style="swimlane;whiteSpace=wrap" vertex="1" parent="rLn4Sj_fgA7SqJmoeYEY-81">
          <mxGeometry x="262.3333333333333" width="262.3333333333333" height="534" as="geometry" />
        </mxCell>
        <mxCell id="rLn4Sj_fgA7SqJmoeYEY-94" value="" style="ellipse;shape=startState;fillColor=#000000;strokeColor=#ff0000;" vertex="1" parent="rLn4Sj_fgA7SqJmoeYEY-93">
          <mxGeometry x="56.21428571428571" y="37.473684210526315" width="28.107142857142854" height="28.105263157894736" as="geometry" />
        </mxCell>
        <mxCell id="rLn4Sj_fgA7SqJmoeYEY-95" value="" style="edgeStyle=elbowEdgeStyle;elbow=horizontal;verticalAlign=bottom;endArrow=open;endSize=8;strokeColor=#FF0000;endFill=1;rounded=0" edge="1" parent="rLn4Sj_fgA7SqJmoeYEY-93" source="rLn4Sj_fgA7SqJmoeYEY-94" target="rLn4Sj_fgA7SqJmoeYEY-96">
          <mxGeometry x="37.476190476190474" y="18.736842105263158" as="geometry">
            <mxPoint x="51.5297619047619" y="84.31578947368422" as="targetPoint" />
          </mxGeometry>
        </mxCell>
        <mxCell id="rLn4Sj_fgA7SqJmoeYEY-96" value="idle-actualizado&#xa;productos/ventas" style="" vertex="1" parent="rLn4Sj_fgA7SqJmoeYEY-93">
          <mxGeometry x="18.738095238095237" y="103.05263157894737" width="103.0595238095238" height="46.8421052631579" as="geometry" />
        </mxCell>
        <mxCell id="rLn4Sj_fgA7SqJmoeYEY-97" value="Descuenta &#xa;inventario" style="" vertex="1" parent="rLn4Sj_fgA7SqJmoeYEY-93">
          <mxGeometry x="18.738095238095237" y="206.10526315789474" width="103.0595238095238" height="46.8421052631579" as="geometry" />
        </mxCell>
        <mxCell id="rLn4Sj_fgA7SqJmoeYEY-98" value="" style="endArrow=open;strokeColor=#FF0000;endFill=1;rounded=0" edge="1" parent="rLn4Sj_fgA7SqJmoeYEY-93" source="rLn4Sj_fgA7SqJmoeYEY-96" target="rLn4Sj_fgA7SqJmoeYEY-97">
          <mxGeometry relative="1" as="geometry" />
        </mxCell>
        <mxCell id="rLn4Sj_fgA7SqJmoeYEY-99" value="comandos REST" style="" vertex="1" parent="rLn4Sj_fgA7SqJmoeYEY-93">
          <mxGeometry x="18.738095238095237" y="304.4736842105263" width="103.0595238095238" height="46.8421052631579" as="geometry" />
        </mxCell>
        <mxCell id="rLn4Sj_fgA7SqJmoeYEY-100" value="" style="endArrow=open;strokeColor=#FF0000;endFill=1;rounded=0" edge="1" parent="rLn4Sj_fgA7SqJmoeYEY-93" source="rLn4Sj_fgA7SqJmoeYEY-97" target="rLn4Sj_fgA7SqJmoeYEY-99">
          <mxGeometry relative="1" as="geometry" />
        </mxCell>
        <mxCell id="rLn4Sj_fgA7SqJmoeYEY-101" value="consulta ok" style="rhombus;fillColor=#ffffc0;strokeColor=#ff0000;" vertex="1" parent="rLn4Sj_fgA7SqJmoeYEY-93">
          <mxGeometry x="140.53571428571428" y="210.78947368421052" width="74.95238095238095" height="37.473684210526315" as="geometry" />
        </mxCell>
        <mxCell id="rLn4Sj_fgA7SqJmoeYEY-102" value="yes" style="edgeStyle=elbowEdgeStyle;elbow=horizontal;align=left;verticalAlign=bottom;endArrow=open;endSize=8;strokeColor=#FF0000;exitX=0.5;exitY=0;endFill=1;rounded=0;entryX=0.75;entryY=0.5;entryPerimeter=0" edge="1" parent="rLn4Sj_fgA7SqJmoeYEY-93" source="rLn4Sj_fgA7SqJmoeYEY-101" target="rLn4Sj_fgA7SqJmoeYEY-105">
          <mxGeometry x="-1" relative="1" as="geometry">
            <mxPoint x="149.9047619047619" y="140.5263157894737" as="targetPoint" />
            <Array as="points">
              <mxPoint x="178.01190476190473" y="168.63157894736844" />
            </Array>
          </mxGeometry>
        </mxCell>
        <mxCell id="rLn4Sj_fgA7SqJmoeYEY-103" value="no" style="edgeStyle=elbowEdgeStyle;elbow=horizontal;align=left;verticalAlign=top;endArrow=open;endSize=8;strokeColor=#FF0000;endFill=1;rounded=0" edge="1" parent="rLn4Sj_fgA7SqJmoeYEY-93" source="rLn4Sj_fgA7SqJmoeYEY-101" target="rLn4Sj_fgA7SqJmoeYEY-107">
          <mxGeometry x="-1" relative="1" as="geometry">
            <mxPoint x="178.01190476190473" y="285.7368421052632" as="targetPoint" />
          </mxGeometry>
        </mxCell>
        <mxCell id="rLn4Sj_fgA7SqJmoeYEY-104" value="" style="endArrow=open;strokeColor=#FF0000;endFill=1;rounded=0" edge="1" parent="rLn4Sj_fgA7SqJmoeYEY-93" source="rLn4Sj_fgA7SqJmoeYEY-97" target="rLn4Sj_fgA7SqJmoeYEY-101">
          <mxGeometry relative="1" as="geometry" />
        </mxCell>
        <mxCell id="rLn4Sj_fgA7SqJmoeYEY-105" value="" style="shape=line;strokeWidth=6;strokeColor=#ff0000;rotation=90" vertex="1" parent="rLn4Sj_fgA7SqJmoeYEY-93">
          <mxGeometry x="121.79761904761904" y="119.44736842105263" width="46.84523809523809" height="14.052631578947368" as="geometry" />
        </mxCell>
        <mxCell id="rLn4Sj_fgA7SqJmoeYEY-106" value="" style="edgeStyle=elbowEdgeStyle;elbow=horizontal;verticalAlign=bottom;endArrow=open;endSize=8;strokeColor=#FF0000;endFill=1;rounded=0" edge="1" parent="rLn4Sj_fgA7SqJmoeYEY-93" source="rLn4Sj_fgA7SqJmoeYEY-105" target="rLn4Sj_fgA7SqJmoeYEY-96">
          <mxGeometry x="121.79761904761904" y="84.31578947368422" as="geometry">
            <mxPoint x="215.4880952380952" y="131.1578947368421" as="targetPoint" />
          </mxGeometry>
        </mxCell>
        <mxCell id="rLn4Sj_fgA7SqJmoeYEY-107" value="dispatch&#xa;command&#xa;worker thread" style="" vertex="1" parent="rLn4Sj_fgA7SqJmoeYEY-93">
          <mxGeometry x="131.16666666666666" y="304.4736842105263" width="103.0595238095238" height="46.8421052631579" as="geometry" />
        </mxCell>
        <mxCell id="rLn4Sj_fgA7SqJmoeYEY-108" value="MIdleware security" style="shape=note;whiteSpace=wrap;size=17" vertex="1" parent="rLn4Sj_fgA7SqJmoeYEY-93">
          <mxGeometry x="98.37499999999999" y="459.0526315789474" width="93.69047619047618" height="46.8421052631579" as="geometry" />
        </mxCell>
        <mxCell id="rLn4Sj_fgA7SqJmoeYEY-109" value="" style="endArrow=none;strokeColor=#FF0000;endFill=0;rounded=0;dashed=1" edge="1" parent="rLn4Sj_fgA7SqJmoeYEY-93" source="rLn4Sj_fgA7SqJmoeYEY-99" target="rLn4Sj_fgA7SqJmoeYEY-108">
          <mxGeometry relative="1" as="geometry" />
        </mxCell>
        <mxCell id="rLn4Sj_fgA7SqJmoeYEY-110" value="" style="whiteSpace=wrap;strokeColor=#FF0000;fillColor=#FF0000" vertex="1" parent="rLn4Sj_fgA7SqJmoeYEY-93">
          <mxGeometry x="229.54166666666663" y="370.0526315789474" width="4.684523809523809" height="42.15789473684211" as="geometry" />
        </mxCell>
        <mxCell id="rLn4Sj_fgA7SqJmoeYEY-111" value="" style="edgeStyle=elbowEdgeStyle;elbow=horizontal;entryX=0;entryY=0.5;strokeColor=#FF0000;endArrow=open;endFill=1;rounded=0" edge="1" parent="rLn4Sj_fgA7SqJmoeYEY-93" source="rLn4Sj_fgA7SqJmoeYEY-107" target="rLn4Sj_fgA7SqJmoeYEY-110">
          <mxGeometry width="100" height="100" relative="1" as="geometry">
            <mxPoint x="56.21428571428571" y="449.6842105263158" as="sourcePoint" />
            <mxPoint x="149.9047619047619" y="356" as="targetPoint" />
            <Array as="points">
              <mxPoint x="182.69642857142856" y="374.7368421052632" />
            </Array>
          </mxGeometry>
        </mxCell>
        <mxCell id="rLn4Sj_fgA7SqJmoeYEY-112" value="Sistema Automático (SIME)" style="swimlane;whiteSpace=wrap" vertex="1" parent="rLn4Sj_fgA7SqJmoeYEY-81">
          <mxGeometry x="524.6666666666666" width="304.3379487179486" height="534" as="geometry" />
        </mxCell>
        <mxCell id="rLn4Sj_fgA7SqJmoeYEY-113" value="Mensaje de error&#xa;log/alert" style="" vertex="1" parent="rLn4Sj_fgA7SqJmoeYEY-112">
          <mxGeometry x="84.32142857142856" y="379.42105263157896" width="103.0595238095238" height="46.8421052631579" as="geometry" />
        </mxCell>
        <mxCell id="rLn4Sj_fgA7SqJmoeYEY-114" value="" style="edgeStyle=elbowEdgeStyle;elbow=horizontal;strokeColor=#FF0000;endArrow=open;endFill=1;rounded=0;entryX=0.25;entryY=0.5;entryPerimeter=0" edge="1" parent="rLn4Sj_fgA7SqJmoeYEY-112" target="rLn4Sj_fgA7SqJmoeYEY-105">
          <mxGeometry width="100" height="100" relative="1" as="geometry">
            <mxPoint x="-28.107142857142854" y="384.10526315789474" as="sourcePoint" />
            <mxPoint x="-112.42857142857142" y="112.42105263157895" as="targetPoint" />
            <Array as="points">
              <mxPoint x="-9.369047619047619" y="126.47368421052632" />
            </Array>
          </mxGeometry>
        </mxCell>
        <mxCell id="rLn4Sj_fgA7SqJmoeYEY-115" value="" style="edgeStyle=none;strokeColor=#FF0000;endArrow=open;endFill=1;rounded=0" edge="1" parent="rLn4Sj_fgA7SqJmoeYEY-112" target="rLn4Sj_fgA7SqJmoeYEY-113">
          <mxGeometry width="100" height="100" relative="1" as="geometry">
            <mxPoint x="-28.107142857142854" y="402.37368421052633" as="sourcePoint" />
            <mxPoint x="84.32142857142856" y="402.37368421052633" as="targetPoint" />
          </mxGeometry>
        </mxCell>
        <mxCell id="rLn4Sj_fgA7SqJmoeYEY-116" value="" style="ellipse;shape=endState;fillColor=#000000;strokeColor=#ff0000" vertex="1" parent="rLn4Sj_fgA7SqJmoeYEY-112">
          <mxGeometry x="121.79761904761904" y="468.42105263157896" width="28.107142857142854" height="28.105263157894736" as="geometry" />
        </mxCell>
        <mxCell id="rLn4Sj_fgA7SqJmoeYEY-117" value="" style="endArrow=open;strokeColor=#FF0000;endFill=1;rounded=0" edge="1" parent="rLn4Sj_fgA7SqJmoeYEY-112" source="rLn4Sj_fgA7SqJmoeYEY-113" target="rLn4Sj_fgA7SqJmoeYEY-116">
          <mxGeometry relative="1" as="geometry" />
        </mxCell>
        <mxCell id="rLn4Sj_fgA7SqJmoeYEY-118" value="" style="endArrow=open;strokeColor=#FF0000;endFill=1;rounded=0" edge="1" parent="rLn4Sj_fgA7SqJmoeYEY-81" source="rLn4Sj_fgA7SqJmoeYEY-88" target="rLn4Sj_fgA7SqJmoeYEY-99">
          <mxGeometry relative="1" as="geometry" />
        </mxCell>
        <mxCell id="rLn4Sj_fgA7SqJmoeYEY-120" value="" style="group" vertex="1" connectable="0" parent="1">
          <mxGeometry x="2521" y="152" width="787" height="534" as="geometry" />
        </mxCell>
        <mxCell id="rLn4Sj_fgA7SqJmoeYEY-121" value="Administrador" style="swimlane;whiteSpace=wrap" vertex="1" parent="rLn4Sj_fgA7SqJmoeYEY-120">
          <mxGeometry width="262.3333333333333" height="534" as="geometry" />
        </mxCell>
        <mxCell id="rLn4Sj_fgA7SqJmoeYEY-122" value="" style="ellipse;shape=startState;fillColor=#000000;strokeColor=#ff0000;" vertex="1" parent="rLn4Sj_fgA7SqJmoeYEY-121">
          <mxGeometry x="93.69047619047618" y="37.473684210526315" width="28.107142857142854" height="28.105263157894736" as="geometry" />
        </mxCell>
        <mxCell id="rLn4Sj_fgA7SqJmoeYEY-123" value="" style="edgeStyle=elbowEdgeStyle;elbow=horizontal;verticalAlign=bottom;endArrow=open;endSize=8;strokeColor=#FF0000;endFill=1;rounded=0" edge="1" parent="rLn4Sj_fgA7SqJmoeYEY-121" source="rLn4Sj_fgA7SqJmoeYEY-122" target="rLn4Sj_fgA7SqJmoeYEY-124">
          <mxGeometry x="93.69047619047618" y="37.473684210526315" as="geometry">
            <mxPoint x="107.7440476190476" y="103.05263157894737" as="targetPoint" />
          </mxGeometry>
        </mxCell>
        <mxCell id="rLn4Sj_fgA7SqJmoeYEY-124" value="idle- Reportes" style="" vertex="1" parent="rLn4Sj_fgA7SqJmoeYEY-121">
          <mxGeometry x="56.21428571428571" y="103.05263157894737" width="103.0595238095238" height="46.8421052631579" as="geometry" />
        </mxCell>
        <mxCell id="rLn4Sj_fgA7SqJmoeYEY-125" value="filtra rango" style="" vertex="1" parent="rLn4Sj_fgA7SqJmoeYEY-121">
          <mxGeometry x="56.21428571428571" y="206.10526315789474" width="103.0595238095238" height="46.8421052631579" as="geometry" />
        </mxCell>
        <mxCell id="rLn4Sj_fgA7SqJmoeYEY-126" value="" style="endArrow=open;strokeColor=#FF0000;endFill=1;rounded=0" edge="1" parent="rLn4Sj_fgA7SqJmoeYEY-121" source="rLn4Sj_fgA7SqJmoeYEY-124" target="rLn4Sj_fgA7SqJmoeYEY-125">
          <mxGeometry relative="1" as="geometry" />
        </mxCell>
        <mxCell id="rLn4Sj_fgA7SqJmoeYEY-127" value="formulario&#xa;consulta" style="" vertex="1" parent="rLn4Sj_fgA7SqJmoeYEY-121">
          <mxGeometry x="56.21428571428571" y="304.4736842105263" width="103.0595238095238" height="46.8421052631579" as="geometry" />
        </mxCell>
        <mxCell id="rLn4Sj_fgA7SqJmoeYEY-128" value="" style="endArrow=open;strokeColor=#FF0000;endFill=1;rounded=0" edge="1" parent="rLn4Sj_fgA7SqJmoeYEY-121" source="rLn4Sj_fgA7SqJmoeYEY-125" target="rLn4Sj_fgA7SqJmoeYEY-127">
          <mxGeometry relative="1" as="geometry" />
        </mxCell>
        <mxCell id="rLn4Sj_fgA7SqJmoeYEY-129" value="" style="edgeStyle=elbowEdgeStyle;elbow=horizontal;strokeColor=#FF0000;endArrow=open;endFill=1;rounded=0" edge="1" parent="rLn4Sj_fgA7SqJmoeYEY-121" source="rLn4Sj_fgA7SqJmoeYEY-127" target="rLn4Sj_fgA7SqJmoeYEY-124">
          <mxGeometry width="100" height="100" relative="1" as="geometry">
            <mxPoint x="149.9047619047619" y="271.6842105263158" as="sourcePoint" />
            <mxPoint x="243.59523809523807" y="178" as="targetPoint" />
            <Array as="points">
              <mxPoint x="28.107142857142854" y="234.21052631578948" />
            </Array>
          </mxGeometry>
        </mxCell>
        <mxCell id="rLn4Sj_fgA7SqJmoeYEY-130" value="Autenticación&#xa;rol" style="shape=note;whiteSpace=wrap;size=17" vertex="1" parent="rLn4Sj_fgA7SqJmoeYEY-121">
          <mxGeometry x="163.95833333333331" y="55.27368421052632" width="94.62738095238095" height="47.77894736842105" as="geometry" />
        </mxCell>
        <mxCell id="rLn4Sj_fgA7SqJmoeYEY-131" value="" style="endArrow=none;strokeColor=#FF0000;endFill=0;rounded=0;dashed=1;exitX=0.5;exitY=1;exitDx=0;exitDy=0;exitPerimeter=0;entryX=1;entryY=0.5;entryDx=0;entryDy=0;" edge="1" parent="rLn4Sj_fgA7SqJmoeYEY-121" source="rLn4Sj_fgA7SqJmoeYEY-130" target="rLn4Sj_fgA7SqJmoeYEY-124">
          <mxGeometry relative="1" as="geometry">
            <mxPoint x="178.9488095238095" y="116.16842105263159" as="sourcePoint" />
            <mxPoint x="231.41547619047617" y="223.90526315789475" as="targetPoint" />
          </mxGeometry>
        </mxCell>
        <mxCell id="rLn4Sj_fgA7SqJmoeYEY-132" value="Ventas" style="swimlane;whiteSpace=wrap" vertex="1" parent="rLn4Sj_fgA7SqJmoeYEY-120">
          <mxGeometry x="262.3333333333333" width="262.3333333333333" height="534" as="geometry" />
        </mxCell>
        <mxCell id="rLn4Sj_fgA7SqJmoeYEY-133" value="" style="ellipse;shape=startState;fillColor=#000000;strokeColor=#ff0000;" vertex="1" parent="rLn4Sj_fgA7SqJmoeYEY-132">
          <mxGeometry x="56.21428571428571" y="37.473684210526315" width="28.107142857142854" height="28.105263157894736" as="geometry" />
        </mxCell>
        <mxCell id="rLn4Sj_fgA7SqJmoeYEY-134" value="" style="edgeStyle=elbowEdgeStyle;elbow=horizontal;verticalAlign=bottom;endArrow=open;endSize=8;strokeColor=#FF0000;endFill=1;rounded=0" edge="1" parent="rLn4Sj_fgA7SqJmoeYEY-132" source="rLn4Sj_fgA7SqJmoeYEY-133" target="rLn4Sj_fgA7SqJmoeYEY-135">
          <mxGeometry x="37.476190476190474" y="18.736842105263158" as="geometry">
            <mxPoint x="51.5297619047619" y="84.31578947368422" as="targetPoint" />
          </mxGeometry>
        </mxCell>
        <mxCell id="rLn4Sj_fgA7SqJmoeYEY-135" value="idle-actualizado&#xa;dashboard" style="" vertex="1" parent="rLn4Sj_fgA7SqJmoeYEY-132">
          <mxGeometry x="18.738095238095237" y="103.05263157894737" width="103.0595238095238" height="46.8421052631579" as="geometry" />
        </mxCell>
        <mxCell id="rLn4Sj_fgA7SqJmoeYEY-136" value="Ventas, cálculos&#xa;genera archivo pdf&#xa;xlsx" style="" vertex="1" parent="rLn4Sj_fgA7SqJmoeYEY-132">
          <mxGeometry x="18.738095238095237" y="206.10526315789474" width="103.0595238095238" height="46.8421052631579" as="geometry" />
        </mxCell>
        <mxCell id="rLn4Sj_fgA7SqJmoeYEY-137" value="" style="endArrow=open;strokeColor=#FF0000;endFill=1;rounded=0" edge="1" parent="rLn4Sj_fgA7SqJmoeYEY-132" source="rLn4Sj_fgA7SqJmoeYEY-135" target="rLn4Sj_fgA7SqJmoeYEY-136">
          <mxGeometry relative="1" as="geometry" />
        </mxCell>
        <mxCell id="rLn4Sj_fgA7SqJmoeYEY-138" value="comandos REST" style="" vertex="1" parent="rLn4Sj_fgA7SqJmoeYEY-132">
          <mxGeometry x="18.738095238095237" y="304.4736842105263" width="103.0595238095238" height="46.8421052631579" as="geometry" />
        </mxCell>
        <mxCell id="rLn4Sj_fgA7SqJmoeYEY-139" value="" style="endArrow=open;strokeColor=#FF0000;endFill=1;rounded=0" edge="1" parent="rLn4Sj_fgA7SqJmoeYEY-132" source="rLn4Sj_fgA7SqJmoeYEY-136" target="rLn4Sj_fgA7SqJmoeYEY-138">
          <mxGeometry relative="1" as="geometry" />
        </mxCell>
        <mxCell id="rLn4Sj_fgA7SqJmoeYEY-140" value="consulta ok" style="rhombus;fillColor=#ffffc0;strokeColor=#ff0000;" vertex="1" parent="rLn4Sj_fgA7SqJmoeYEY-132">
          <mxGeometry x="140.53571428571428" y="210.78947368421052" width="74.95238095238095" height="37.473684210526315" as="geometry" />
        </mxCell>
        <mxCell id="rLn4Sj_fgA7SqJmoeYEY-141" value="yes" style="edgeStyle=elbowEdgeStyle;elbow=horizontal;align=left;verticalAlign=bottom;endArrow=open;endSize=8;strokeColor=#FF0000;exitX=0.5;exitY=0;endFill=1;rounded=0;entryX=0.75;entryY=0.5;entryPerimeter=0" edge="1" parent="rLn4Sj_fgA7SqJmoeYEY-132" source="rLn4Sj_fgA7SqJmoeYEY-140" target="rLn4Sj_fgA7SqJmoeYEY-144">
          <mxGeometry x="-1" relative="1" as="geometry">
            <mxPoint x="149.9047619047619" y="140.5263157894737" as="targetPoint" />
            <Array as="points">
              <mxPoint x="178.01190476190473" y="168.63157894736844" />
            </Array>
          </mxGeometry>
        </mxCell>
        <mxCell id="rLn4Sj_fgA7SqJmoeYEY-142" value="no" style="edgeStyle=elbowEdgeStyle;elbow=horizontal;align=left;verticalAlign=top;endArrow=open;endSize=8;strokeColor=#FF0000;endFill=1;rounded=0" edge="1" parent="rLn4Sj_fgA7SqJmoeYEY-132" source="rLn4Sj_fgA7SqJmoeYEY-140" target="rLn4Sj_fgA7SqJmoeYEY-146">
          <mxGeometry x="-1" relative="1" as="geometry">
            <mxPoint x="178.01190476190473" y="285.7368421052632" as="targetPoint" />
          </mxGeometry>
        </mxCell>
        <mxCell id="rLn4Sj_fgA7SqJmoeYEY-143" value="" style="endArrow=open;strokeColor=#FF0000;endFill=1;rounded=0" edge="1" parent="rLn4Sj_fgA7SqJmoeYEY-132" source="rLn4Sj_fgA7SqJmoeYEY-136" target="rLn4Sj_fgA7SqJmoeYEY-140">
          <mxGeometry relative="1" as="geometry" />
        </mxCell>
        <mxCell id="rLn4Sj_fgA7SqJmoeYEY-144" value="" style="shape=line;strokeWidth=6;strokeColor=#ff0000;rotation=90" vertex="1" parent="rLn4Sj_fgA7SqJmoeYEY-132">
          <mxGeometry x="121.79761904761904" y="119.44736842105263" width="46.84523809523809" height="14.052631578947368" as="geometry" />
        </mxCell>
        <mxCell id="rLn4Sj_fgA7SqJmoeYEY-145" value="" style="edgeStyle=elbowEdgeStyle;elbow=horizontal;verticalAlign=bottom;endArrow=open;endSize=8;strokeColor=#FF0000;endFill=1;rounded=0" edge="1" parent="rLn4Sj_fgA7SqJmoeYEY-132" source="rLn4Sj_fgA7SqJmoeYEY-144" target="rLn4Sj_fgA7SqJmoeYEY-135">
          <mxGeometry x="121.79761904761904" y="84.31578947368422" as="geometry">
            <mxPoint x="215.4880952380952" y="131.1578947368421" as="targetPoint" />
          </mxGeometry>
        </mxCell>
        <mxCell id="rLn4Sj_fgA7SqJmoeYEY-146" value="dispatch&#xa;command&#xa;worker thread" style="" vertex="1" parent="rLn4Sj_fgA7SqJmoeYEY-132">
          <mxGeometry x="131.16666666666666" y="304.4736842105263" width="103.0595238095238" height="46.8421052631579" as="geometry" />
        </mxCell>
        <mxCell id="rLn4Sj_fgA7SqJmoeYEY-147" value="MIdleware security" style="shape=note;whiteSpace=wrap;size=17" vertex="1" parent="rLn4Sj_fgA7SqJmoeYEY-132">
          <mxGeometry x="98.37499999999999" y="459.0526315789474" width="93.69047619047618" height="46.8421052631579" as="geometry" />
        </mxCell>
        <mxCell id="rLn4Sj_fgA7SqJmoeYEY-148" value="" style="endArrow=none;strokeColor=#FF0000;endFill=0;rounded=0;dashed=1" edge="1" parent="rLn4Sj_fgA7SqJmoeYEY-132" source="rLn4Sj_fgA7SqJmoeYEY-138" target="rLn4Sj_fgA7SqJmoeYEY-147">
          <mxGeometry relative="1" as="geometry" />
        </mxCell>
        <mxCell id="rLn4Sj_fgA7SqJmoeYEY-149" value="" style="whiteSpace=wrap;strokeColor=#FF0000;fillColor=#FF0000" vertex="1" parent="rLn4Sj_fgA7SqJmoeYEY-132">
          <mxGeometry x="229.54166666666663" y="370.0526315789474" width="4.684523809523809" height="42.15789473684211" as="geometry" />
        </mxCell>
        <mxCell id="rLn4Sj_fgA7SqJmoeYEY-150" value="" style="edgeStyle=elbowEdgeStyle;elbow=horizontal;entryX=0;entryY=0.5;strokeColor=#FF0000;endArrow=open;endFill=1;rounded=0" edge="1" parent="rLn4Sj_fgA7SqJmoeYEY-132" source="rLn4Sj_fgA7SqJmoeYEY-146" target="rLn4Sj_fgA7SqJmoeYEY-149">
          <mxGeometry width="100" height="100" relative="1" as="geometry">
            <mxPoint x="56.21428571428571" y="449.6842105263158" as="sourcePoint" />
            <mxPoint x="149.9047619047619" y="356" as="targetPoint" />
            <Array as="points">
              <mxPoint x="182.69642857142856" y="374.7368421052632" />
            </Array>
          </mxGeometry>
        </mxCell>
        <mxCell id="rLn4Sj_fgA7SqJmoeYEY-151" value="Sistema Automático (SIME)" style="swimlane;whiteSpace=wrap" vertex="1" parent="rLn4Sj_fgA7SqJmoeYEY-120">
          <mxGeometry x="524.6666666666666" width="262.3333333333333" height="534" as="geometry" />
        </mxCell>
        <mxCell id="rLn4Sj_fgA7SqJmoeYEY-152" value="Mensaje de error&#xa;log/alert" style="" vertex="1" parent="rLn4Sj_fgA7SqJmoeYEY-151">
          <mxGeometry x="84.32142857142856" y="379.42105263157896" width="103.0595238095238" height="46.8421052631579" as="geometry" />
        </mxCell>
        <mxCell id="rLn4Sj_fgA7SqJmoeYEY-153" value="" style="edgeStyle=elbowEdgeStyle;elbow=horizontal;strokeColor=#FF0000;endArrow=open;endFill=1;rounded=0;entryX=0.25;entryY=0.5;entryPerimeter=0" edge="1" parent="rLn4Sj_fgA7SqJmoeYEY-151" target="rLn4Sj_fgA7SqJmoeYEY-144">
          <mxGeometry width="100" height="100" relative="1" as="geometry">
            <mxPoint x="-28.107142857142854" y="384.10526315789474" as="sourcePoint" />
            <mxPoint x="-112.42857142857142" y="112.42105263157895" as="targetPoint" />
            <Array as="points">
              <mxPoint x="-9.369047619047619" y="126.47368421052632" />
            </Array>
          </mxGeometry>
        </mxCell>
        <mxCell id="rLn4Sj_fgA7SqJmoeYEY-154" value="" style="edgeStyle=none;strokeColor=#FF0000;endArrow=open;endFill=1;rounded=0" edge="1" parent="rLn4Sj_fgA7SqJmoeYEY-151" target="rLn4Sj_fgA7SqJmoeYEY-152">
          <mxGeometry width="100" height="100" relative="1" as="geometry">
            <mxPoint x="-28.107142857142854" y="402.37368421052633" as="sourcePoint" />
            <mxPoint x="84.32142857142856" y="402.37368421052633" as="targetPoint" />
          </mxGeometry>
        </mxCell>
        <mxCell id="rLn4Sj_fgA7SqJmoeYEY-155" value="" style="ellipse;shape=endState;fillColor=#000000;strokeColor=#ff0000" vertex="1" parent="rLn4Sj_fgA7SqJmoeYEY-151">
          <mxGeometry x="121.79761904761904" y="468.42105263157896" width="28.107142857142854" height="28.105263157894736" as="geometry" />
        </mxCell>
        <mxCell id="rLn4Sj_fgA7SqJmoeYEY-156" value="" style="endArrow=open;strokeColor=#FF0000;endFill=1;rounded=0" edge="1" parent="rLn4Sj_fgA7SqJmoeYEY-151" source="rLn4Sj_fgA7SqJmoeYEY-152" target="rLn4Sj_fgA7SqJmoeYEY-155">
          <mxGeometry relative="1" as="geometry" />
        </mxCell>
        <mxCell id="rLn4Sj_fgA7SqJmoeYEY-157" value="" style="endArrow=open;strokeColor=#FF0000;endFill=1;rounded=0" edge="1" parent="rLn4Sj_fgA7SqJmoeYEY-120" source="rLn4Sj_fgA7SqJmoeYEY-127" target="rLn4Sj_fgA7SqJmoeYEY-138">
          <mxGeometry relative="1" as="geometry" />
        </mxCell>
        <mxCell id="rLn4Sj_fgA7SqJmoeYEY-158" value="" style="group" vertex="1" connectable="0" parent="1">
          <mxGeometry x="3352" y="144" width="891.996923076923" height="534" as="geometry" />
        </mxCell>
        <mxCell id="rLn4Sj_fgA7SqJmoeYEY-159" value="Operador Almacén" style="swimlane;whiteSpace=wrap" vertex="1" parent="rLn4Sj_fgA7SqJmoeYEY-158">
          <mxGeometry width="262.3333333333333" height="534" as="geometry" />
        </mxCell>
        <mxCell id="rLn4Sj_fgA7SqJmoeYEY-160" value="" style="ellipse;shape=startState;fillColor=#000000;strokeColor=#ff0000;" vertex="1" parent="rLn4Sj_fgA7SqJmoeYEY-159">
          <mxGeometry x="93.69047619047618" y="37.473684210526315" width="28.107142857142854" height="28.105263157894736" as="geometry" />
        </mxCell>
        <mxCell id="rLn4Sj_fgA7SqJmoeYEY-161" value="" style="edgeStyle=elbowEdgeStyle;elbow=horizontal;verticalAlign=bottom;endArrow=open;endSize=8;strokeColor=#FF0000;endFill=1;rounded=0" edge="1" parent="rLn4Sj_fgA7SqJmoeYEY-159" source="rLn4Sj_fgA7SqJmoeYEY-160" target="rLn4Sj_fgA7SqJmoeYEY-162">
          <mxGeometry x="93.69047619047618" y="37.473684210526315" as="geometry">
            <mxPoint x="107.7440476190476" y="103.05263157894737" as="targetPoint" />
          </mxGeometry>
        </mxCell>
        <mxCell id="rLn4Sj_fgA7SqJmoeYEY-162" value="idle- Productos" style="" vertex="1" parent="rLn4Sj_fgA7SqJmoeYEY-159">
          <mxGeometry x="56.21428571428571" y="103.05263157894737" width="103.0595238095238" height="46.8421052631579" as="geometry" />
        </mxCell>
        <mxCell id="rLn4Sj_fgA7SqJmoeYEY-163" value="Visualiza productos" style="" vertex="1" parent="rLn4Sj_fgA7SqJmoeYEY-159">
          <mxGeometry x="56.21428571428571" y="206.10526315789474" width="103.0595238095238" height="46.8421052631579" as="geometry" />
        </mxCell>
        <mxCell id="rLn4Sj_fgA7SqJmoeYEY-164" value="" style="endArrow=open;strokeColor=#FF0000;endFill=1;rounded=0" edge="1" parent="rLn4Sj_fgA7SqJmoeYEY-159" source="rLn4Sj_fgA7SqJmoeYEY-162" target="rLn4Sj_fgA7SqJmoeYEY-163">
          <mxGeometry relative="1" as="geometry" />
        </mxCell>
        <mxCell id="rLn4Sj_fgA7SqJmoeYEY-165" value="Formularios  CRUD" style="" vertex="1" parent="rLn4Sj_fgA7SqJmoeYEY-159">
          <mxGeometry x="56.21428571428571" y="304.4736842105263" width="103.0595238095238" height="46.8421052631579" as="geometry" />
        </mxCell>
        <mxCell id="rLn4Sj_fgA7SqJmoeYEY-166" value="" style="endArrow=open;strokeColor=#FF0000;endFill=1;rounded=0" edge="1" parent="rLn4Sj_fgA7SqJmoeYEY-159" source="rLn4Sj_fgA7SqJmoeYEY-163" target="rLn4Sj_fgA7SqJmoeYEY-165">
          <mxGeometry relative="1" as="geometry" />
        </mxCell>
        <mxCell id="rLn4Sj_fgA7SqJmoeYEY-167" value="" style="edgeStyle=elbowEdgeStyle;elbow=horizontal;strokeColor=#FF0000;endArrow=open;endFill=1;rounded=0" edge="1" parent="rLn4Sj_fgA7SqJmoeYEY-159" source="rLn4Sj_fgA7SqJmoeYEY-165" target="rLn4Sj_fgA7SqJmoeYEY-162">
          <mxGeometry width="100" height="100" relative="1" as="geometry">
            <mxPoint x="149.9047619047619" y="271.6842105263158" as="sourcePoint" />
            <mxPoint x="243.59523809523807" y="178" as="targetPoint" />
            <Array as="points">
              <mxPoint x="28.107142857142854" y="234.21052631578948" />
            </Array>
          </mxGeometry>
        </mxCell>
        <mxCell id="rLn4Sj_fgA7SqJmoeYEY-168" value="Autenticación&#xa;rol" style="shape=note;whiteSpace=wrap;size=17" vertex="1" parent="rLn4Sj_fgA7SqJmoeYEY-159">
          <mxGeometry x="163.95833333333331" y="55.27368421052632" width="94.62738095238095" height="47.77894736842105" as="geometry" />
        </mxCell>
        <mxCell id="rLn4Sj_fgA7SqJmoeYEY-169" value="" style="endArrow=none;strokeColor=#FF0000;endFill=0;rounded=0;dashed=1;exitX=0.5;exitY=1;exitDx=0;exitDy=0;exitPerimeter=0;entryX=1;entryY=0.5;entryDx=0;entryDy=0;" edge="1" parent="rLn4Sj_fgA7SqJmoeYEY-159" source="rLn4Sj_fgA7SqJmoeYEY-168" target="rLn4Sj_fgA7SqJmoeYEY-162">
          <mxGeometry relative="1" as="geometry">
            <mxPoint x="178.9488095238095" y="116.16842105263159" as="sourcePoint" />
            <mxPoint x="231.41547619047617" y="223.90526315789475" as="targetPoint" />
          </mxGeometry>
        </mxCell>
        <mxCell id="rLn4Sj_fgA7SqJmoeYEY-170" value="Inventario" style="swimlane;whiteSpace=wrap" vertex="1" parent="rLn4Sj_fgA7SqJmoeYEY-158">
          <mxGeometry x="262.3333333333333" width="262.3333333333333" height="534" as="geometry" />
        </mxCell>
        <mxCell id="rLn4Sj_fgA7SqJmoeYEY-171" value="" style="ellipse;shape=startState;fillColor=#000000;strokeColor=#ff0000;" vertex="1" parent="rLn4Sj_fgA7SqJmoeYEY-170">
          <mxGeometry x="56.21428571428571" y="37.473684210526315" width="28.107142857142854" height="28.105263157894736" as="geometry" />
        </mxCell>
        <mxCell id="rLn4Sj_fgA7SqJmoeYEY-172" value="" style="edgeStyle=elbowEdgeStyle;elbow=horizontal;verticalAlign=bottom;endArrow=open;endSize=8;strokeColor=#FF0000;endFill=1;rounded=0" edge="1" parent="rLn4Sj_fgA7SqJmoeYEY-170" source="rLn4Sj_fgA7SqJmoeYEY-171" target="rLn4Sj_fgA7SqJmoeYEY-173">
          <mxGeometry x="37.476190476190474" y="18.736842105263158" as="geometry">
            <mxPoint x="51.5297619047619" y="84.31578947368422" as="targetPoint" />
          </mxGeometry>
        </mxCell>
        <mxCell id="rLn4Sj_fgA7SqJmoeYEY-173" value="idle-actualizado" style="" vertex="1" parent="rLn4Sj_fgA7SqJmoeYEY-170">
          <mxGeometry x="18.738095238095237" y="103.05263157894737" width="103.0595238095238" height="46.8421052631579" as="geometry" />
        </mxCell>
        <mxCell id="rLn4Sj_fgA7SqJmoeYEY-174" value="Verifica informacion" style="" vertex="1" parent="rLn4Sj_fgA7SqJmoeYEY-170">
          <mxGeometry x="18.738095238095237" y="206.10526315789474" width="103.0595238095238" height="46.8421052631579" as="geometry" />
        </mxCell>
        <mxCell id="rLn4Sj_fgA7SqJmoeYEY-175" value="" style="endArrow=open;strokeColor=#FF0000;endFill=1;rounded=0" edge="1" parent="rLn4Sj_fgA7SqJmoeYEY-170" source="rLn4Sj_fgA7SqJmoeYEY-173" target="rLn4Sj_fgA7SqJmoeYEY-174">
          <mxGeometry relative="1" as="geometry" />
        </mxCell>
        <mxCell id="rLn4Sj_fgA7SqJmoeYEY-176" value="comandos REST" style="" vertex="1" parent="rLn4Sj_fgA7SqJmoeYEY-170">
          <mxGeometry x="18.738095238095237" y="304.4736842105263" width="103.0595238095238" height="46.8421052631579" as="geometry" />
        </mxCell>
        <mxCell id="rLn4Sj_fgA7SqJmoeYEY-177" value="" style="endArrow=open;strokeColor=#FF0000;endFill=1;rounded=0" edge="1" parent="rLn4Sj_fgA7SqJmoeYEY-170" source="rLn4Sj_fgA7SqJmoeYEY-174" target="rLn4Sj_fgA7SqJmoeYEY-176">
          <mxGeometry relative="1" as="geometry" />
        </mxCell>
        <mxCell id="rLn4Sj_fgA7SqJmoeYEY-178" value="consulta ok" style="rhombus;fillColor=#ffffc0;strokeColor=#ff0000;" vertex="1" parent="rLn4Sj_fgA7SqJmoeYEY-170">
          <mxGeometry x="140.53571428571428" y="210.78947368421052" width="74.95238095238095" height="37.473684210526315" as="geometry" />
        </mxCell>
        <mxCell id="rLn4Sj_fgA7SqJmoeYEY-179" value="yes" style="edgeStyle=elbowEdgeStyle;elbow=horizontal;align=left;verticalAlign=bottom;endArrow=open;endSize=8;strokeColor=#FF0000;exitX=0.5;exitY=0;endFill=1;rounded=0;entryX=0.75;entryY=0.5;entryPerimeter=0" edge="1" parent="rLn4Sj_fgA7SqJmoeYEY-170" source="rLn4Sj_fgA7SqJmoeYEY-178" target="rLn4Sj_fgA7SqJmoeYEY-182">
          <mxGeometry x="-1" relative="1" as="geometry">
            <mxPoint x="149.9047619047619" y="140.5263157894737" as="targetPoint" />
            <Array as="points">
              <mxPoint x="178.01190476190473" y="168.63157894736844" />
            </Array>
          </mxGeometry>
        </mxCell>
        <mxCell id="rLn4Sj_fgA7SqJmoeYEY-180" value="no" style="edgeStyle=elbowEdgeStyle;elbow=horizontal;align=left;verticalAlign=top;endArrow=open;endSize=8;strokeColor=#FF0000;endFill=1;rounded=0" edge="1" parent="rLn4Sj_fgA7SqJmoeYEY-170" source="rLn4Sj_fgA7SqJmoeYEY-178" target="rLn4Sj_fgA7SqJmoeYEY-184">
          <mxGeometry x="-1" relative="1" as="geometry">
            <mxPoint x="178.01190476190473" y="285.7368421052632" as="targetPoint" />
          </mxGeometry>
        </mxCell>
        <mxCell id="rLn4Sj_fgA7SqJmoeYEY-181" value="" style="endArrow=open;strokeColor=#FF0000;endFill=1;rounded=0" edge="1" parent="rLn4Sj_fgA7SqJmoeYEY-170" source="rLn4Sj_fgA7SqJmoeYEY-174" target="rLn4Sj_fgA7SqJmoeYEY-178">
          <mxGeometry relative="1" as="geometry" />
        </mxCell>
        <mxCell id="rLn4Sj_fgA7SqJmoeYEY-182" value="" style="shape=line;strokeWidth=6;strokeColor=#ff0000;rotation=90" vertex="1" parent="rLn4Sj_fgA7SqJmoeYEY-170">
          <mxGeometry x="121.79761904761904" y="119.44736842105263" width="46.84523809523809" height="14.052631578947368" as="geometry" />
        </mxCell>
        <mxCell id="rLn4Sj_fgA7SqJmoeYEY-183" value="" style="edgeStyle=elbowEdgeStyle;elbow=horizontal;verticalAlign=bottom;endArrow=open;endSize=8;strokeColor=#FF0000;endFill=1;rounded=0" edge="1" parent="rLn4Sj_fgA7SqJmoeYEY-170" source="rLn4Sj_fgA7SqJmoeYEY-182" target="rLn4Sj_fgA7SqJmoeYEY-173">
          <mxGeometry x="121.79761904761904" y="84.31578947368422" as="geometry">
            <mxPoint x="215.4880952380952" y="131.1578947368421" as="targetPoint" />
          </mxGeometry>
        </mxCell>
        <mxCell id="rLn4Sj_fgA7SqJmoeYEY-184" value="dispatch&#xa;command&#xa;worker thread" style="" vertex="1" parent="rLn4Sj_fgA7SqJmoeYEY-170">
          <mxGeometry x="131.16666666666666" y="304.4736842105263" width="103.0595238095238" height="46.8421052631579" as="geometry" />
        </mxCell>
        <mxCell id="rLn4Sj_fgA7SqJmoeYEY-185" value="MIdleware security" style="shape=note;whiteSpace=wrap;size=17" vertex="1" parent="rLn4Sj_fgA7SqJmoeYEY-170">
          <mxGeometry x="98.37499999999999" y="459.0526315789474" width="93.69047619047618" height="46.8421052631579" as="geometry" />
        </mxCell>
        <mxCell id="rLn4Sj_fgA7SqJmoeYEY-186" value="" style="endArrow=none;strokeColor=#FF0000;endFill=0;rounded=0;dashed=1" edge="1" parent="rLn4Sj_fgA7SqJmoeYEY-170" source="rLn4Sj_fgA7SqJmoeYEY-176" target="rLn4Sj_fgA7SqJmoeYEY-185">
          <mxGeometry relative="1" as="geometry" />
        </mxCell>
        <mxCell id="rLn4Sj_fgA7SqJmoeYEY-187" value="" style="whiteSpace=wrap;strokeColor=#FF0000;fillColor=#FF0000" vertex="1" parent="rLn4Sj_fgA7SqJmoeYEY-170">
          <mxGeometry x="229.54166666666663" y="370.0526315789474" width="4.684523809523809" height="42.15789473684211" as="geometry" />
        </mxCell>
        <mxCell id="rLn4Sj_fgA7SqJmoeYEY-188" value="" style="edgeStyle=elbowEdgeStyle;elbow=horizontal;entryX=0;entryY=0.5;strokeColor=#FF0000;endArrow=open;endFill=1;rounded=0" edge="1" parent="rLn4Sj_fgA7SqJmoeYEY-170" source="rLn4Sj_fgA7SqJmoeYEY-184" target="rLn4Sj_fgA7SqJmoeYEY-187">
          <mxGeometry width="100" height="100" relative="1" as="geometry">
            <mxPoint x="56.21428571428571" y="449.6842105263158" as="sourcePoint" />
            <mxPoint x="149.9047619047619" y="356" as="targetPoint" />
            <Array as="points">
              <mxPoint x="182.69642857142856" y="374.7368421052632" />
            </Array>
          </mxGeometry>
        </mxCell>
        <mxCell id="rLn4Sj_fgA7SqJmoeYEY-189" value="Sistema Automático (SIME)" style="swimlane;whiteSpace=wrap" vertex="1" parent="rLn4Sj_fgA7SqJmoeYEY-158">
          <mxGeometry x="524.6666666666666" width="367.3302564102564" height="534" as="geometry" />
        </mxCell>
        <mxCell id="rLn4Sj_fgA7SqJmoeYEY-190" value="Mensaje de error&#xa;log/alert" style="" vertex="1" parent="rLn4Sj_fgA7SqJmoeYEY-189">
          <mxGeometry x="84.32142857142856" y="379.42105263157896" width="103.0595238095238" height="46.8421052631579" as="geometry" />
        </mxCell>
        <mxCell id="rLn4Sj_fgA7SqJmoeYEY-191" value="" style="edgeStyle=elbowEdgeStyle;elbow=horizontal;strokeColor=#FF0000;endArrow=open;endFill=1;rounded=0;entryX=0.25;entryY=0.5;entryPerimeter=0" edge="1" parent="rLn4Sj_fgA7SqJmoeYEY-189" target="rLn4Sj_fgA7SqJmoeYEY-182">
          <mxGeometry width="100" height="100" relative="1" as="geometry">
            <mxPoint x="-28.107142857142854" y="384.10526315789474" as="sourcePoint" />
            <mxPoint x="-112.42857142857142" y="112.42105263157895" as="targetPoint" />
            <Array as="points">
              <mxPoint x="-9.369047619047619" y="126.47368421052632" />
            </Array>
          </mxGeometry>
        </mxCell>
        <mxCell id="rLn4Sj_fgA7SqJmoeYEY-192" value="" style="edgeStyle=none;strokeColor=#FF0000;endArrow=open;endFill=1;rounded=0" edge="1" parent="rLn4Sj_fgA7SqJmoeYEY-189" target="rLn4Sj_fgA7SqJmoeYEY-190">
          <mxGeometry width="100" height="100" relative="1" as="geometry">
            <mxPoint x="-28.107142857142854" y="402.37368421052633" as="sourcePoint" />
            <mxPoint x="84.32142857142856" y="402.37368421052633" as="targetPoint" />
          </mxGeometry>
        </mxCell>
        <mxCell id="rLn4Sj_fgA7SqJmoeYEY-193" value="" style="ellipse;shape=endState;fillColor=#000000;strokeColor=#ff0000" vertex="1" parent="rLn4Sj_fgA7SqJmoeYEY-189">
          <mxGeometry x="121.79761904761904" y="468.42105263157896" width="28.107142857142854" height="28.105263157894736" as="geometry" />
        </mxCell>
        <mxCell id="rLn4Sj_fgA7SqJmoeYEY-194" value="" style="endArrow=open;strokeColor=#FF0000;endFill=1;rounded=0" edge="1" parent="rLn4Sj_fgA7SqJmoeYEY-189" source="rLn4Sj_fgA7SqJmoeYEY-190" target="rLn4Sj_fgA7SqJmoeYEY-193">
          <mxGeometry relative="1" as="geometry" />
        </mxCell>
        <mxCell id="rLn4Sj_fgA7SqJmoeYEY-238" value="&lt;ol start=&quot;1&quot; type=&quot;1&quot;&gt;&#xa; &lt;li class=&quot;MsoNormal&quot; style=&quot;mso-margin-top-alt:auto;mso-margin-bottom-alt:auto;&#xa;     line-height:normal;mso-list:l0 level1 lfo1;tab-stops:list 36.0pt&quot;&gt;&lt;span lang=&quot;ES-CO&quot;&gt;El administrador accede a la sección de usuarios.&lt;/span&gt;&lt;/li&gt;&#xa; &lt;li class=&quot;MsoNormal&quot; style=&quot;mso-margin-top-alt:auto;mso-margin-bottom-alt:auto;&#xa;     line-height:normal;mso-list:l0 level1 lfo1;tab-stops:list 36.0pt&quot;&gt;&lt;span lang=&quot;ES-CO&quot;&gt;Puede registrar, editar o eliminar usuarios.&lt;/span&gt;&lt;/li&gt;&#xa; &lt;li class=&quot;MsoNormal&quot; style=&quot;mso-margin-top-alt:auto;mso-margin-bottom-alt:auto;&#xa;     line-height:normal;mso-list:l0 level1 lfo1;tab-stops:list 36.0pt&quot;&gt;&lt;span lang=&quot;ES-CO&quot;&gt;Asigna el rol correspondiente (admin, operador[POS, Almacen]).&lt;/span&gt;&lt;/li&gt;&#xa; &lt;li class=&quot;MsoNormal&quot; style=&quot;mso-margin-top-alt:auto;mso-margin-bottom-alt:auto;&#xa;     line-height:normal;mso-list:l0 level1 lfo1;tab-stops:list 36.0pt&quot;&gt;&lt;span lang=&quot;ES-CO&quot;&gt;El sistema valida los datos y actualiza la información.&lt;/span&gt;&lt;/li&gt;&#xa;&lt;/ol&gt;" style="text;whiteSpace=wrap;html=1;" vertex="1" parent="rLn4Sj_fgA7SqJmoeYEY-189">
          <mxGeometry x="-19.67" y="107" width="361.67" height="176" as="geometry" />
        </mxCell>
        <mxCell id="rLn4Sj_fgA7SqJmoeYEY-195" value="" style="endArrow=open;strokeColor=#FF0000;endFill=1;rounded=0" edge="1" parent="rLn4Sj_fgA7SqJmoeYEY-158" source="rLn4Sj_fgA7SqJmoeYEY-165" target="rLn4Sj_fgA7SqJmoeYEY-176">
          <mxGeometry relative="1" as="geometry" />
        </mxCell>
        <mxCell id="rLn4Sj_fgA7SqJmoeYEY-196" value="" style="group" vertex="1" connectable="0" parent="1">
          <mxGeometry x="4212" y="144" width="787" height="534" as="geometry" />
        </mxCell>
        <mxCell id="rLn4Sj_fgA7SqJmoeYEY-197" value="Operador Almacén" style="swimlane;whiteSpace=wrap" vertex="1" parent="rLn4Sj_fgA7SqJmoeYEY-196">
          <mxGeometry width="262.3333333333333" height="534" as="geometry" />
        </mxCell>
        <mxCell id="rLn4Sj_fgA7SqJmoeYEY-198" value="" style="ellipse;shape=startState;fillColor=#000000;strokeColor=#ff0000;" vertex="1" parent="rLn4Sj_fgA7SqJmoeYEY-197">
          <mxGeometry x="93.69047619047618" y="37.473684210526315" width="28.107142857142854" height="28.105263157894736" as="geometry" />
        </mxCell>
        <mxCell id="rLn4Sj_fgA7SqJmoeYEY-199" value="" style="edgeStyle=elbowEdgeStyle;elbow=horizontal;verticalAlign=bottom;endArrow=open;endSize=8;strokeColor=#FF0000;endFill=1;rounded=0" edge="1" parent="rLn4Sj_fgA7SqJmoeYEY-197" source="rLn4Sj_fgA7SqJmoeYEY-198" target="rLn4Sj_fgA7SqJmoeYEY-200">
          <mxGeometry x="93.69047619047618" y="37.473684210526315" as="geometry">
            <mxPoint x="107.7440476190476" y="103.05263157894737" as="targetPoint" />
          </mxGeometry>
        </mxCell>
        <mxCell id="rLn4Sj_fgA7SqJmoeYEY-200" value="idle- Productos" style="" vertex="1" parent="rLn4Sj_fgA7SqJmoeYEY-197">
          <mxGeometry x="56.21428571428571" y="103.05263157894737" width="103.0595238095238" height="46.8421052631579" as="geometry" />
        </mxCell>
        <mxCell id="rLn4Sj_fgA7SqJmoeYEY-201" value="Visualiza productos" style="" vertex="1" parent="rLn4Sj_fgA7SqJmoeYEY-197">
          <mxGeometry x="56.21428571428571" y="206.10526315789474" width="103.0595238095238" height="46.8421052631579" as="geometry" />
        </mxCell>
        <mxCell id="rLn4Sj_fgA7SqJmoeYEY-202" value="" style="endArrow=open;strokeColor=#FF0000;endFill=1;rounded=0" edge="1" parent="rLn4Sj_fgA7SqJmoeYEY-197" source="rLn4Sj_fgA7SqJmoeYEY-200" target="rLn4Sj_fgA7SqJmoeYEY-201">
          <mxGeometry relative="1" as="geometry" />
        </mxCell>
        <mxCell id="rLn4Sj_fgA7SqJmoeYEY-203" value="Formularios  CRUD" style="" vertex="1" parent="rLn4Sj_fgA7SqJmoeYEY-197">
          <mxGeometry x="56.21428571428571" y="304.4736842105263" width="103.0595238095238" height="46.8421052631579" as="geometry" />
        </mxCell>
        <mxCell id="rLn4Sj_fgA7SqJmoeYEY-204" value="" style="endArrow=open;strokeColor=#FF0000;endFill=1;rounded=0" edge="1" parent="rLn4Sj_fgA7SqJmoeYEY-197" source="rLn4Sj_fgA7SqJmoeYEY-201" target="rLn4Sj_fgA7SqJmoeYEY-203">
          <mxGeometry relative="1" as="geometry" />
        </mxCell>
        <mxCell id="rLn4Sj_fgA7SqJmoeYEY-205" value="" style="edgeStyle=elbowEdgeStyle;elbow=horizontal;strokeColor=#FF0000;endArrow=open;endFill=1;rounded=0" edge="1" parent="rLn4Sj_fgA7SqJmoeYEY-197" source="rLn4Sj_fgA7SqJmoeYEY-203" target="rLn4Sj_fgA7SqJmoeYEY-200">
          <mxGeometry width="100" height="100" relative="1" as="geometry">
            <mxPoint x="149.9047619047619" y="271.6842105263158" as="sourcePoint" />
            <mxPoint x="243.59523809523807" y="178" as="targetPoint" />
            <Array as="points">
              <mxPoint x="28.107142857142854" y="234.21052631578948" />
            </Array>
          </mxGeometry>
        </mxCell>
        <mxCell id="rLn4Sj_fgA7SqJmoeYEY-206" value="Autenticación&#xa;rol" style="shape=note;whiteSpace=wrap;size=17" vertex="1" parent="rLn4Sj_fgA7SqJmoeYEY-197">
          <mxGeometry x="163.95833333333331" y="55.27368421052632" width="94.62738095238095" height="47.77894736842105" as="geometry" />
        </mxCell>
        <mxCell id="rLn4Sj_fgA7SqJmoeYEY-207" value="" style="endArrow=none;strokeColor=#FF0000;endFill=0;rounded=0;dashed=1;exitX=0.5;exitY=1;exitDx=0;exitDy=0;exitPerimeter=0;entryX=1;entryY=0.5;entryDx=0;entryDy=0;" edge="1" parent="rLn4Sj_fgA7SqJmoeYEY-197" source="rLn4Sj_fgA7SqJmoeYEY-206" target="rLn4Sj_fgA7SqJmoeYEY-200">
          <mxGeometry relative="1" as="geometry">
            <mxPoint x="178.9488095238095" y="116.16842105263159" as="sourcePoint" />
            <mxPoint x="231.41547619047617" y="223.90526315789475" as="targetPoint" />
          </mxGeometry>
        </mxCell>
        <mxCell id="rLn4Sj_fgA7SqJmoeYEY-208" value="Inventario" style="swimlane;whiteSpace=wrap" vertex="1" parent="rLn4Sj_fgA7SqJmoeYEY-196">
          <mxGeometry x="262.3333333333333" width="262.3333333333333" height="534" as="geometry" />
        </mxCell>
        <mxCell id="rLn4Sj_fgA7SqJmoeYEY-209" value="" style="ellipse;shape=startState;fillColor=#000000;strokeColor=#ff0000;" vertex="1" parent="rLn4Sj_fgA7SqJmoeYEY-208">
          <mxGeometry x="56.21428571428571" y="37.473684210526315" width="28.107142857142854" height="28.105263157894736" as="geometry" />
        </mxCell>
        <mxCell id="rLn4Sj_fgA7SqJmoeYEY-210" value="" style="edgeStyle=elbowEdgeStyle;elbow=horizontal;verticalAlign=bottom;endArrow=open;endSize=8;strokeColor=#FF0000;endFill=1;rounded=0" edge="1" parent="rLn4Sj_fgA7SqJmoeYEY-208" source="rLn4Sj_fgA7SqJmoeYEY-209" target="rLn4Sj_fgA7SqJmoeYEY-211">
          <mxGeometry x="37.476190476190474" y="18.736842105263158" as="geometry">
            <mxPoint x="51.5297619047619" y="84.31578947368422" as="targetPoint" />
          </mxGeometry>
        </mxCell>
        <mxCell id="rLn4Sj_fgA7SqJmoeYEY-211" value="idle-actualizado" style="" vertex="1" parent="rLn4Sj_fgA7SqJmoeYEY-208">
          <mxGeometry x="18.738095238095237" y="103.05263157894737" width="103.0595238095238" height="46.8421052631579" as="geometry" />
        </mxCell>
        <mxCell id="rLn4Sj_fgA7SqJmoeYEY-212" value="Verifica informacion" style="" vertex="1" parent="rLn4Sj_fgA7SqJmoeYEY-208">
          <mxGeometry x="18.738095238095237" y="206.10526315789474" width="103.0595238095238" height="46.8421052631579" as="geometry" />
        </mxCell>
        <mxCell id="rLn4Sj_fgA7SqJmoeYEY-213" value="" style="endArrow=open;strokeColor=#FF0000;endFill=1;rounded=0" edge="1" parent="rLn4Sj_fgA7SqJmoeYEY-208" source="rLn4Sj_fgA7SqJmoeYEY-211" target="rLn4Sj_fgA7SqJmoeYEY-212">
          <mxGeometry relative="1" as="geometry" />
        </mxCell>
        <mxCell id="rLn4Sj_fgA7SqJmoeYEY-214" value="comandos REST" style="" vertex="1" parent="rLn4Sj_fgA7SqJmoeYEY-208">
          <mxGeometry x="18.738095238095237" y="304.4736842105263" width="103.0595238095238" height="46.8421052631579" as="geometry" />
        </mxCell>
        <mxCell id="rLn4Sj_fgA7SqJmoeYEY-215" value="" style="endArrow=open;strokeColor=#FF0000;endFill=1;rounded=0" edge="1" parent="rLn4Sj_fgA7SqJmoeYEY-208" source="rLn4Sj_fgA7SqJmoeYEY-212" target="rLn4Sj_fgA7SqJmoeYEY-214">
          <mxGeometry relative="1" as="geometry" />
        </mxCell>
        <mxCell id="rLn4Sj_fgA7SqJmoeYEY-216" value="consulta ok" style="rhombus;fillColor=#ffffc0;strokeColor=#ff0000;" vertex="1" parent="rLn4Sj_fgA7SqJmoeYEY-208">
          <mxGeometry x="140.53571428571428" y="210.78947368421052" width="74.95238095238095" height="37.473684210526315" as="geometry" />
        </mxCell>
        <mxCell id="rLn4Sj_fgA7SqJmoeYEY-217" value="yes" style="edgeStyle=elbowEdgeStyle;elbow=horizontal;align=left;verticalAlign=bottom;endArrow=open;endSize=8;strokeColor=#FF0000;exitX=0.5;exitY=0;endFill=1;rounded=0;entryX=0.75;entryY=0.5;entryPerimeter=0" edge="1" parent="rLn4Sj_fgA7SqJmoeYEY-208" source="rLn4Sj_fgA7SqJmoeYEY-216" target="rLn4Sj_fgA7SqJmoeYEY-220">
          <mxGeometry x="-1" relative="1" as="geometry">
            <mxPoint x="149.9047619047619" y="140.5263157894737" as="targetPoint" />
            <Array as="points">
              <mxPoint x="178.01190476190473" y="168.63157894736844" />
            </Array>
          </mxGeometry>
        </mxCell>
        <mxCell id="rLn4Sj_fgA7SqJmoeYEY-218" value="no" style="edgeStyle=elbowEdgeStyle;elbow=horizontal;align=left;verticalAlign=top;endArrow=open;endSize=8;strokeColor=#FF0000;endFill=1;rounded=0" edge="1" parent="rLn4Sj_fgA7SqJmoeYEY-208" source="rLn4Sj_fgA7SqJmoeYEY-216" target="rLn4Sj_fgA7SqJmoeYEY-222">
          <mxGeometry x="-1" relative="1" as="geometry">
            <mxPoint x="178.01190476190473" y="285.7368421052632" as="targetPoint" />
          </mxGeometry>
        </mxCell>
        <mxCell id="rLn4Sj_fgA7SqJmoeYEY-219" value="" style="endArrow=open;strokeColor=#FF0000;endFill=1;rounded=0" edge="1" parent="rLn4Sj_fgA7SqJmoeYEY-208" source="rLn4Sj_fgA7SqJmoeYEY-212" target="rLn4Sj_fgA7SqJmoeYEY-216">
          <mxGeometry relative="1" as="geometry" />
        </mxCell>
        <mxCell id="rLn4Sj_fgA7SqJmoeYEY-220" value="" style="shape=line;strokeWidth=6;strokeColor=#ff0000;rotation=90" vertex="1" parent="rLn4Sj_fgA7SqJmoeYEY-208">
          <mxGeometry x="121.79761904761904" y="119.44736842105263" width="46.84523809523809" height="14.052631578947368" as="geometry" />
        </mxCell>
        <mxCell id="rLn4Sj_fgA7SqJmoeYEY-221" value="" style="edgeStyle=elbowEdgeStyle;elbow=horizontal;verticalAlign=bottom;endArrow=open;endSize=8;strokeColor=#FF0000;endFill=1;rounded=0" edge="1" parent="rLn4Sj_fgA7SqJmoeYEY-208" source="rLn4Sj_fgA7SqJmoeYEY-220" target="rLn4Sj_fgA7SqJmoeYEY-211">
          <mxGeometry x="121.79761904761904" y="84.31578947368422" as="geometry">
            <mxPoint x="215.4880952380952" y="131.1578947368421" as="targetPoint" />
          </mxGeometry>
        </mxCell>
        <mxCell id="rLn4Sj_fgA7SqJmoeYEY-222" value="dispatch&#xa;command&#xa;worker thread" style="" vertex="1" parent="rLn4Sj_fgA7SqJmoeYEY-208">
          <mxGeometry x="131.16666666666666" y="304.4736842105263" width="103.0595238095238" height="46.8421052631579" as="geometry" />
        </mxCell>
        <mxCell id="rLn4Sj_fgA7SqJmoeYEY-223" value="MIdleware security" style="shape=note;whiteSpace=wrap;size=17" vertex="1" parent="rLn4Sj_fgA7SqJmoeYEY-208">
          <mxGeometry x="98.37499999999999" y="459.0526315789474" width="93.69047619047618" height="46.8421052631579" as="geometry" />
        </mxCell>
        <mxCell id="rLn4Sj_fgA7SqJmoeYEY-224" value="" style="endArrow=none;strokeColor=#FF0000;endFill=0;rounded=0;dashed=1" edge="1" parent="rLn4Sj_fgA7SqJmoeYEY-208" source="rLn4Sj_fgA7SqJmoeYEY-214" target="rLn4Sj_fgA7SqJmoeYEY-223">
          <mxGeometry relative="1" as="geometry" />
        </mxCell>
        <mxCell id="rLn4Sj_fgA7SqJmoeYEY-225" value="" style="whiteSpace=wrap;strokeColor=#FF0000;fillColor=#FF0000" vertex="1" parent="rLn4Sj_fgA7SqJmoeYEY-208">
          <mxGeometry x="229.54166666666663" y="370.0526315789474" width="4.684523809523809" height="42.15789473684211" as="geometry" />
        </mxCell>
        <mxCell id="rLn4Sj_fgA7SqJmoeYEY-226" value="" style="edgeStyle=elbowEdgeStyle;elbow=horizontal;entryX=0;entryY=0.5;strokeColor=#FF0000;endArrow=open;endFill=1;rounded=0" edge="1" parent="rLn4Sj_fgA7SqJmoeYEY-208" source="rLn4Sj_fgA7SqJmoeYEY-222" target="rLn4Sj_fgA7SqJmoeYEY-225">
          <mxGeometry width="100" height="100" relative="1" as="geometry">
            <mxPoint x="56.21428571428571" y="449.6842105263158" as="sourcePoint" />
            <mxPoint x="149.9047619047619" y="356" as="targetPoint" />
            <Array as="points">
              <mxPoint x="182.69642857142856" y="374.7368421052632" />
            </Array>
          </mxGeometry>
        </mxCell>
        <mxCell id="rLn4Sj_fgA7SqJmoeYEY-227" value="Sistema Automático (SIME)" style="swimlane;whiteSpace=wrap" vertex="1" parent="rLn4Sj_fgA7SqJmoeYEY-196">
          <mxGeometry x="524.6666666666666" width="262.3333333333333" height="534" as="geometry" />
        </mxCell>
        <mxCell id="rLn4Sj_fgA7SqJmoeYEY-228" value="Mensaje de error&#xa;log/alert" style="" vertex="1" parent="rLn4Sj_fgA7SqJmoeYEY-227">
          <mxGeometry x="84.32142857142856" y="379.42105263157896" width="103.0595238095238" height="46.8421052631579" as="geometry" />
        </mxCell>
        <mxCell id="rLn4Sj_fgA7SqJmoeYEY-229" value="" style="edgeStyle=elbowEdgeStyle;elbow=horizontal;strokeColor=#FF0000;endArrow=open;endFill=1;rounded=0;entryX=0.25;entryY=0.5;entryPerimeter=0" edge="1" parent="rLn4Sj_fgA7SqJmoeYEY-227" target="rLn4Sj_fgA7SqJmoeYEY-220">
          <mxGeometry width="100" height="100" relative="1" as="geometry">
            <mxPoint x="-28.107142857142854" y="384.10526315789474" as="sourcePoint" />
            <mxPoint x="-112.42857142857142" y="112.42105263157895" as="targetPoint" />
            <Array as="points">
              <mxPoint x="-9.369047619047619" y="126.47368421052632" />
            </Array>
          </mxGeometry>
        </mxCell>
        <mxCell id="rLn4Sj_fgA7SqJmoeYEY-230" value="" style="edgeStyle=none;strokeColor=#FF0000;endArrow=open;endFill=1;rounded=0" edge="1" parent="rLn4Sj_fgA7SqJmoeYEY-227" target="rLn4Sj_fgA7SqJmoeYEY-228">
          <mxGeometry width="100" height="100" relative="1" as="geometry">
            <mxPoint x="-28.107142857142854" y="402.37368421052633" as="sourcePoint" />
            <mxPoint x="84.32142857142856" y="402.37368421052633" as="targetPoint" />
          </mxGeometry>
        </mxCell>
        <mxCell id="rLn4Sj_fgA7SqJmoeYEY-231" value="" style="ellipse;shape=endState;fillColor=#000000;strokeColor=#ff0000" vertex="1" parent="rLn4Sj_fgA7SqJmoeYEY-227">
          <mxGeometry x="121.79761904761904" y="468.42105263157896" width="28.107142857142854" height="28.105263157894736" as="geometry" />
        </mxCell>
        <mxCell id="rLn4Sj_fgA7SqJmoeYEY-232" value="" style="endArrow=open;strokeColor=#FF0000;endFill=1;rounded=0" edge="1" parent="rLn4Sj_fgA7SqJmoeYEY-227" source="rLn4Sj_fgA7SqJmoeYEY-228" target="rLn4Sj_fgA7SqJmoeYEY-231">
          <mxGeometry relative="1" as="geometry" />
        </mxCell>
        <mxCell id="rLn4Sj_fgA7SqJmoeYEY-233" value="" style="endArrow=open;strokeColor=#FF0000;endFill=1;rounded=0" edge="1" parent="rLn4Sj_fgA7SqJmoeYEY-196" source="rLn4Sj_fgA7SqJmoeYEY-203" target="rLn4Sj_fgA7SqJmoeYEY-214">
          <mxGeometry relative="1" as="geometry" />
        </mxCell>
      </root>
    </mxGraphModel>
  </diagram>
</mxfile>
